Raleway-SemiBold-Italic-TTF.ufo
<glyph name="parenleft" format="1">
  <advance width="291"/>
  <unicode hex="0028"/>
  <outline>
    <contour>
      <point x="39" y="262" type="qcurve"/>
      <point x="39" y="328"/>
      <point x="76" y="450"/>
      <point x="139" y="569"/>
      <point x="225" y="687"/>
      <point x="274" y="750" type="qcurve"/>
      <point x="350" y="714" type="line"/>
      <point x="317" y="673"/>
      <point x="243" y="567"/>
      <point x="182" y="450"/>
      <point x="142" y="327"/>
      <point x="142" y="270" type="qcurve"/>
      <point x="142" y="207"/>
      <point x="170" y="60"/>
      <point x="195" y="-6" type="qcurve"/>
      <point x="105" y="-47" type="line"/>
      <point x="90" y="-13"/>
      <point x="66" y="64"/>
      <point x="49" y="144"/>
      <point x="39" y="224"/>
    </contour>
  </outline>
</glyph>
<glyph name="zero" format="1">
  <advance width="594"/>
  <unicode hex="0030"/>
  <outline>
    <contour>
      <point x="231" y="-10" type="qcurve"/>
      <point x="187" y="-10"/>
      <point x="118" y="25"/>
      <point x="69" y="86"/>
      <point x="43" y="172"/>
      <point x="43" y="223" type="qcurve"/>
      <point x="43" y="301"/>
      <point x="95" y="437"/>
      <point x="183" y="538"/>
      <point x="298" y="597"/>
      <point x="360" y="597" type="qcurve"/>
      <point x="403" y="597"/>
      <point x="473" y="562"/>
      <point x="523" y="500"/>
      <point x="549" y="414"/>
      <point x="549" y="363" type="qcurve"/>
      <point x="549" y="285"/>
      <point x="496" y="149"/>
      <point x="408" y="48"/>
      <point x="293" y="-10"/>
    </contour>
    <contour>
      <point x="252" y="92" type="qcurve"/>
      <point x="288" y="92"/>
      <point x="355" y="133"/>
      <point x="406" y="203"/>
      <point x="436" y="297"/>
      <point x="436" y="351" type="qcurve"/>
      <point x="436" y="416"/>
      <point x="384" y="495"/>
      <point x="339" y="495" type="qcurve"/>
      <point x="301" y="495"/>
      <point x="234" y="454"/>
      <point x="184" y="383"/>
      <point x="154" y="288"/>
      <point x="154" y="235" type="qcurve"/>
      <point x="154" y="170"/>
      <point x="205" y="92"/>
    </contour>
  </outline>
</glyph>
<glyph name="five" format="1">
  <advance width="531"/>
  <unicode hex="0035"/>
  <outline>
    <contour>
      <point x="155" y="-149" type="qcurve"/>
      <point x="82" y="-149"/>
      <point x="-20" y="-80"/>
      <point x="-37" y="-21" type="qcurve"/>
      <point x="41" y="42" type="line"/>
      <point x="58" y="0"/>
      <point x="130" y="-52"/>
      <point x="176" y="-52" type="qcurve"/>
      <point x="209" y="-52"/>
      <point x="269" y="-27"/>
      <point x="314" y="18"/>
      <point x="341" y="79"/>
      <point x="341" y="115" type="qcurve"/>
      <point x="341" y="163"/>
      <point x="287" y="221"/>
      <point x="242" y="221" type="qcurve"/>
      <point x="207" y="221"/>
      <point x="139" y="188"/>
      <point x="114" y="156" type="qcurve"/>
      <point x="17" y="156" type="line"/>
      <point x="23" y="170"/>
      <point x="50" y="237"/>
      <point x="84" y="324"/>
      <point x="121" y="420"/>
      <point x="154" y="503"/>
      <point x="178" y="563"/>
      <point x="182" y="571" type="qcurve"/>
      <point x="513" y="571" type="line"/>
      <point x="491" y="470" type="line"/>
      <point x="241" y="470" type="line"/>
      <point x="167" y="276" type="line"/>
      <point x="186" y="295"/>
      <point x="242" y="317"/>
      <point x="277" y="317" type="qcurve"/>
      <point x="317" y="317"/>
      <point x="384" y="290"/>
      <point x="430" y="242"/>
      <point x="456" y="174"/>
      <point x="456" y="134" type="qcurve"/>
      <point x="456" y="72"/>
      <point x="407" y="-31"/>
      <point x="324" y="-107"/>
      <point x="215" y="-149"/>
    </contour>
  </outline>
</glyph>
<glyph name="I" format="1">
  <advance width="271"/>
  <unicode hex="0049"/>
  <outline>
    <contour>
      <point x="218" y="708" type="move" name="top"/>
    </contour>
    <contour>
      <point x="76" y="0" type="move" name="bottom"/>
    </contour>
    <contour>
      <point x="166" y="709" type="line"/>
      <point x="279" y="709" type="line"/>
      <point x="128" y="0" type="line"/>
      <point x="15" y="0" type="line"/>
    </contour>
  </outline>
</glyph>
<glyph name="asciicircum" format="1">
  <advance width="572"/>
  <unicode hex="005E"/>
  <outline>
    <contour>
      <point x="49" y="303" type="line"/>
      <point x="247" y="710" type="line"/>
      <point x="340" y="710" type="line"/>
      <point x="537" y="303" type="line"/>
      <point x="445" y="303" type="line"/>
      <point x="294" y="615" type="line"/>
      <point x="139" y="303" type="line"/>
    </contour>
  </outline>
</glyph>
<glyph name="braceleft" format="1">
  <advance width="285"/>
  <unicode hex="007B"/>
  <outline>
    <contour>
      <point x="262" y="651" type="line"/>
      <point x="214" y="427" type="line"/>
      <point x="210" y="410"/>
      <point x="187" y="374"/>
      <point x="169" y="360" type="qcurve"/>
      <point x="187" y="340"/>
      <point x="187" y="309" type="qcurve"/>
      <point x="187" y="305"/>
      <point x="187" y="298"/>
      <point x="186" y="293" type="qcurve"/>
      <point x="136" y="58" type="line"/>
      <point x="188" y="58" type="line"/>
      <point x="170" y="-31" type="line"/>
      <point x="40" y="-31" type="line"/>
      <point x="34" y="-31"/>
      <point x="23" y="-23"/>
      <point x="23" y="-12" type="qcurve"/>
      <point x="23" y="-5"/>
      <point x="24" y="-1" type="qcurve"/>
      <point x="79" y="259" type="line"/>
      <point x="80" y="264"/>
      <point x="80" y="274" type="qcurve"/>
      <point x="80" y="293"/>
      <point x="63" y="319"/>
      <point x="48" y="322" type="qcurve"/>
      <point x="65" y="400" type="line"/>
      <point x="75" y="400"/>
      <point x="94" y="412"/>
      <point x="110" y="431"/>
      <point x="121" y="452"/>
      <point x="123" y="461" type="qcurve"/>
      <point x="175" y="710" type="line"/>
      <point x="179" y="729"/>
      <point x="199" y="740"/>
      <point x="204" y="740" type="qcurve"/>
      <point x="334" y="740" type="line"/>
      <point x="314" y="651" type="line"/>
    </contour>
  </outline>
</glyph>
<glyph name="cent" format="1">
  <advance width="559"/>
  <unicode hex="00A2"/>
  <outline>
    <contour>
      <point x="177" y="-120" type="line"/>
      <point x="201" y="-9" type="line"/>
      <point x="160" y="-6"/>
      <point x="95" y="34"/>
      <point x="50" y="95"/>
      <point x="27" y="171"/>
      <point x="27" y="211" type="qcurve"/>
      <point x="27" y="266"/>
      <point x="69" y="373"/>
      <point x="144" y="462"/>
      <point x="250" y="522"/>
      <point x="315" y="531" type="qcurve"/>
      <point x="340" y="645" type="line"/>
      <point x="390" y="645" type="line"/>
      <point x="366" y="531" type="line"/>
      <point x="434" y="529"/>
      <point x="524" y="462"/>
      <point x="541" y="402" type="qcurve"/>
      <point x="427" y="368" type="line"/>
      <point x="418" y="399"/>
      <point x="375" y="432"/>
      <point x="346" y="434" type="qcurve"/>
      <point x="272" y="87" type="line"/>
      <point x="287" y="89"/>
      <point x="320" y="100"/>
      <point x="351" y="118"/>
      <point x="377" y="142"/>
      <point x="384" y="156" type="qcurve"/>
      <point x="485" y="124" type="line"/>
      <point x="465" y="91"/>
      <point x="405" y="40"/>
      <point x="340" y="7"/>
      <point x="276" y="-10"/>
      <point x="251" y="-10" type="qcurve"/>
      <point x="228" y="-120" type="line"/>
    </contour>
    <contour>
      <point x="141" y="222" type="qcurve"/>
      <point x="141" y="176"/>
      <point x="184" y="102"/>
      <point x="222" y="92" type="qcurve"/>
      <point x="294" y="430" type="line"/>
      <point x="261" y="424"/>
      <point x="205" y="383"/>
      <point x="164" y="324"/>
      <point x="141" y="255"/>
    </contour>
  </outline>
</glyph>
<glyph name="dieresis" format="1">
  <advance width="400"/>
  <unicode hex="00A8"/>
  <outline>
    <contour>
      <point x="173" y="522" type="move" name="_top"/>
    </contour>
    <contour>
      <point x="73" y="615" type="line"/>
      <point x="97" y="725" type="line"/>
      <point x="188" y="725" type="line"/>
      <point x="165" y="615" type="line"/>
    </contour>
    <contour>
      <point x="245" y="615" type="line"/>
      <point x="268" y="725" type="line"/>
      <point x="359" y="725" type="line"/>
      <point x="336" y="615" type="line"/>
    </contour>
  </outline>
</glyph>
<glyph name="cedilla" format="1">
  <advance width="297"/>
  <unicode hex="00B8"/>
  <outline>
    <contour>
      <point x="120" y="0" type="move" name="_bottom"/>
    </contour>
    <contour>
      <point x="17" y="-126" type="line"/>
      <point x="27" y="-133"/>
      <point x="71" y="-146"/>
      <point x="96" y="-146" type="qcurve"/>
      <point x="125" y="-146"/>
      <point x="159" y="-127"/>
      <point x="159" y="-105" type="qcurve"/>
      <point x="159" y="-90"/>
      <point x="135" y="-78"/>
      <point x="116" y="-78" type="qcurve"/>
      <point x="96" y="-78"/>
      <point x="50" y="-86"/>
      <point x="37" y="-90" type="qcurve"/>
      <point x="118" y="24" type="line"/>
      <point x="160" y="9" type="line"/>
      <point x="115" y="-45" type="line"/>
      <point x="123" y="-43"/>
      <point x="140" y="-41"/>
      <point x="147" y="-41" type="qcurve"/>
      <point x="176" y="-41"/>
      <point x="213" y="-67"/>
      <point x="213" y="-94" type="qcurve"/>
      <point x="213" y="-135"/>
      <point x="146" y="-189"/>
      <point x="79" y="-189" type="qcurve"/>
      <point x="49" y="-189"/>
      <point x="1" y="-177"/>
      <point x="-16" y="-169" type="qcurve"/>
    </contour>
  </outline>
</glyph>
<glyph name="questiondown" format="1">
  <advance width="461"/>
  <unicode hex="00BF"/>
  <outline>
    <contour>
      <point x="334" y="285" type="line"/>
      <point x="323" y="233"/>
      <point x="274" y="153"/>
      <point x="221" y="124" type="qcurve"/>
      <point x="195" y="110"/>
      <point x="139" y="81"/>
      <point x="93" y="43"/>
      <point x="62" y="-7"/>
      <point x="62" y="-42" type="qcurve"/>
      <point x="62" y="-81"/>
      <point x="110" y="-123"/>
      <point x="144" y="-123" type="qcurve"/>
      <point x="166" y="-123"/>
      <point x="207" y="-108"/>
      <point x="243" y="-83"/>
      <point x="273" y="-52"/>
      <point x="285" y="-35" type="qcurve"/>
      <point x="347" y="-84" type="line"/>
      <point x="328" y="-115"/>
      <point x="277" y="-163"/>
      <point x="218" y="-196"/>
      <point x="153" y="-213"/>
      <point x="121" y="-213" type="qcurve"/>
      <point x="90" y="-213"/>
      <point x="32" y="-195"/>
      <point x="-12" y="-157"/>
      <point x="-38" y="-99"/>
      <point x="-38" y="-59" type="qcurve"/>
      <point x="-38" y="-13"/>
      <point x="-14" y="53"/>
      <point x="27" y="101"/>
      <point x="82" y="137"/>
      <point x="113" y="153" type="qcurve"/>
      <point x="134" y="164"/>
      <point x="175" y="187"/>
      <point x="210" y="217"/>
      <point x="236" y="257"/>
      <point x="242" y="285" type="qcurve"/>
    </contour>
    <contour>
      <point x="379" y="506" type="line"/>
      <point x="352" y="380" type="line"/>
      <point x="261" y="380" type="line"/>
      <point x="287" y="506" type="line"/>
    </contour>
  </outline>
</glyph>
<glyph name="Igrave" format="1">
  <advance width="271"/>
  <unicode hex="00CC"/>
  <outline>
    <contour>
      <point x="166" y="709" type="line"/>
      <point x="279" y="709" type="line"/>
      <point x="128" y="0" type="line"/>
      <point x="15" y="0" type="line"/>
    </contour>
    <contour>
      <point x="162" y="917" type="line"/>
      <point x="266" y="917" type="line"/>
      <point x="296" y="807" type="line"/>
      <point x="220" y="788" type="line"/>
    </contour>
  </outline>
</glyph>
<glyph name="Icircumflex" format="1">
  <advance width="271"/>
  <unicode hex="00CE"/>
  <outline>
    <contour>
      <point x="166" y="709" type="line"/>
      <point x="279" y="709" type="line"/>
      <point x="128" y="0" type="line"/>
      <point x="15" y="0" type="line"/>
    </contour>
    <contour>
      <point x="106" y="821" type="line"/>
      <point x="225" y="916" type="line"/>
      <point x="305" y="916" type="line"/>
      <point x="383" y="821" type="line"/>
      <point x="319" y="793" type="line"/>
      <point x="252" y="856" type="line"/>
      <point x="158" y="793" type="line"/>
    </contour>
  </outline>
</glyph>
<glyph name="Thorn" format="1">
  <advance width="582"/>
  <unicode hex="00DE"/>
  <outline>
    <contour>
      <point x="166" y="710" type="line"/>
      <point x="279" y="710" type="line"/>
      <point x="251" y="577" type="line"/>
      <point x="405" y="577" type="line"/>
      <point x="444" y="577"/>
      <point x="506" y="545"/>
      <point x="549" y="491"/>
      <point x="572" y="422"/>
      <point x="572" y="386" type="qcurve"/>
      <point x="572" y="336"/>
      <point x="530" y="239"/>
      <point x="459" y="162"/>
      <point x="365" y="114"/>
      <point x="312" y="114" type="qcurve"/>
      <point x="152" y="114" type="line"/>
      <point x="128" y="0" type="line"/>
      <point x="15" y="0" type="line"/>
    </contour>
    <contour>
      <point x="328" y="214" type="line"/>
      <point x="354" y="214"/>
      <point x="401" y="242"/>
      <point x="436" y="287"/>
      <point x="457" y="344"/>
      <point x="457" y="374" type="qcurve"/>
      <point x="457" y="419"/>
      <point x="413" y="478"/>
      <point x="378" y="478" type="qcurve"/>
      <point x="229" y="478" type="line"/>
      <point x="173" y="214" type="line"/>
    </contour>
  </outline>
</glyph>
<glyph name="ccedilla" format="1">
  <advance width="536"/>
  <unicode hex="00E7"/>
  <outline>
    <contour>
      <point x="119" y="-126" type="line"/>
      <point x="129" y="-133"/>
      <point x="173" y="-146"/>
      <point x="198" y="-146" type="qcurve"/>
      <point x="227" y="-146"/>
      <point x="261" y="-127"/>
      <point x="261" y="-105" type="qcurve"/>
      <point x="261" y="-90"/>
      <point x="237" y="-78"/>
      <point x="218" y="-78" type="qcurve"/>
      <point x="198" y="-78"/>
      <point x="152" y="-86"/>
      <point x="139" y="-90" type="qcurve"/>
      <point x="197" y="-8" type="line"/>
      <point x="154" y="-3"/>
      <point x="87" y="35"/>
      <point x="42" y="93"/>
      <point x="19" y="168"/>
      <point x="19" y="210" type="qcurve"/>
      <point x="19" y="273"/>
      <point x="68" y="389"/>
      <point x="155" y="478"/>
      <point x="272" y="532"/>
      <point x="341" y="532" type="qcurve"/>
      <point x="419" y="532"/>
      <point x="515" y="461"/>
      <point x="531" y="402" type="qcurve"/>
      <point x="417" y="368" type="line"/>
      <point x="406" y="401"/>
      <point x="355" y="438"/>
      <point x="319" y="438" type="qcurve"/>
      <point x="283" y="438"/>
      <point x="216" y="405"/>
      <point x="164" y="346"/>
      <point x="133" y="268"/>
      <point x="133" y="223" type="qcurve"/>
      <point x="133" y="193"/>
      <point x="149" y="142"/>
      <point x="179" y="105"/>
      <point x="220" y="84"/>
      <point x="245" y="84" type="qcurve"/>
      <point x="264" y="84"/>
      <point x="302" y="95"/>
      <point x="337" y="115"/>
      <point x="365" y="141"/>
      <point x="374" y="156" type="qcurve"/>
      <point x="475" y="124" type="line"/>
      <point x="440" y="69"/>
      <point x="320" y="-4"/>
      <point x="247" y="-9" type="qcurve"/>
      <point x="217" y="-45" type="line"/>
      <point x="225" y="-43"/>
      <point x="242" y="-41"/>
      <point x="249" y="-41" type="qcurve"/>
      <point x="278" y="-41"/>
      <point x="315" y="-67"/>
      <point x="315" y="-94" type="qcurve"/>
      <point x="315" y="-135"/>
      <point x="248" y="-189"/>
      <point x="181" y="-189" type="qcurve"/>
      <point x="151" y="-189"/>
      <point x="103" y="-177"/>
      <point x="86" y="-169" type="qcurve"/>
    </contour>
  </outline>
</glyph>
<glyph name="eth" format="1">
  <advance width="587"/>
  <unicode hex="00F0"/>
  <outline>
    <contour>
      <point x="572" y="668" type="line"/>
      <point x="489" y="624" type="line"/>
      <point x="525" y="566"/>
      <point x="557" y="434"/>
      <point x="557" y="374" type="qcurve"/>
      <point x="557" y="286"/>
      <point x="501" y="144"/>
      <point x="408" y="44"/>
      <point x="287" y="-10"/>
      <point x="221" y="-10" type="qcurve"/>
      <point x="175" y="-10"/>
      <point x="99" y="21"/>
      <point x="45" y="75"/>
      <point x="15" y="148"/>
      <point x="15" y="191" type="qcurve"/>
      <point x="15" y="247"/>
      <point x="64" y="349"/>
      <point x="144" y="427"/>
      <point x="247" y="473"/>
      <point x="302" y="473" type="qcurve"/>
      <point x="356" y="473"/>
      <point x="435" y="422"/>
      <point x="452" y="380" type="qcurve"/>
      <point x="452" y="397"/>
      <point x="450" y="429"/>
      <point x="447" y="444" type="qcurve"/>
      <point x="442" y="480"/>
      <point x="418" y="549"/>
      <point x="397" y="583" type="qcurve"/>
      <point x="295" y="527" type="line"/>
      <point x="272" y="572" type="line"/>
      <point x="367" y="623" type="line"/>
      <point x="322" y="678"/>
      <point x="244" y="730" type="qcurve"/>
      <point x="389" y="730" type="line"/>
      <point x="431" y="701"/>
      <point x="460" y="664" type="qcurve"/>
      <point x="549" y="713" type="line"/>
    </contour>
    <contour>
      <point x="129" y="205" type="qcurve"/>
      <point x="129" y="179"/>
      <point x="146" y="135"/>
      <point x="176" y="103"/>
      <point x="218" y="84"/>
      <point x="244" y="84" type="qcurve"/>
      <point x="280" y="84"/>
      <point x="345" y="114"/>
      <point x="395" y="164"/>
      <point x="425" y="229"/>
      <point x="425" y="265" type="qcurve"/>
      <point x="425" y="316"/>
      <point x="363" y="384"/>
      <point x="310" y="384" type="qcurve"/>
      <point x="275" y="384"/>
      <point x="209" y="355"/>
      <point x="159" y="306"/>
      <point x="129" y="241"/>
    </contour>
  </outline>
</glyph>
<glyph name="oslash" format="1">
  <advance width="582"/>
  <unicode hex="00F8"/>
  <outline>
    <contour>
      <point x="66" y="62" type="line"/>
      <point x="43" y="91"/>
      <point x="19" y="166"/>
      <point x="19" y="208" type="qcurve"/>
      <point x="19" y="271"/>
      <point x="69" y="388"/>
      <point x="156" y="478"/>
      <point x="273" y="532"/>
      <point x="340" y="532" type="qcurve"/>
      <point x="378" y="532"/>
      <point x="440" y="511"/>
      <point x="465" y="493" type="qcurve"/>
      <point x="498" y="526" type="line"/>
      <point x="563" y="526" type="line"/>
      <point x="497" y="462" type="line"/>
      <point x="521" y="433"/>
      <point x="546" y="356"/>
      <point x="546" y="313" type="qcurve"/>
      <point x="546" y="251"/>
      <point x="497" y="135"/>
      <point x="410" y="45"/>
      <point x="293" y="-10"/>
      <point x="225" y="-10" type="qcurve"/>
      <point x="186" y="-10"/>
      <point x="122" y="11"/>
      <point x="97" y="31" type="qcurve"/>
      <point x="63" y="-3" type="line"/>
      <point x="-1" y="-3" type="line"/>
    </contour>
    <contour>
      <point x="245" y="84" type="qcurve"/>
      <point x="280" y="84"/>
      <point x="347" y="118"/>
      <point x="400" y="177"/>
      <point x="432" y="255"/>
      <point x="432" y="299" type="qcurve"/>
      <point x="432" y="322"/>
      <point x="422" y="361"/>
      <point x="414" y="378" type="qcurve"/>
      <point x="174" y="111" type="line"/>
      <point x="203" y="84"/>
    </contour>
    <contour>
      <point x="133" y="222" type="qcurve"/>
      <point x="133" y="178"/>
      <point x="150" y="144" type="qcurve"/>
      <point x="388" y="411" type="line"/>
      <point x="359" y="438"/>
      <point x="319" y="438" type="qcurve"/>
      <point x="284" y="438"/>
      <point x="218" y="403"/>
      <point x="165" y="344"/>
      <point x="133" y="266"/>
    </contour>
  </outline>
</glyph>
<glyph name="Cdotaccent" format="1">
  <advance width="655"/>
  <unicode hex="010A"/>
  <outline>
    <contour>
      <point x="294" y="-6" type="qcurve"/>
      <point x="234" y="-6"/>
      <point x="139" y="45"/>
      <point x="75" y="129"/>
      <point x="41" y="237"/>
      <point x="41" y="295" type="qcurve"/>
      <point x="41" y="368"/>
      <point x="103" y="517"/>
      <point x="213" y="638"/>
      <point x="364" y="714"/>
      <point x="453" y="714" type="qcurve"/>
      <point x="545" y="714"/>
      <point x="659" y="628"/>
      <point x="677" y="559" type="qcurve"/>
      <point x="577" y="500" type="line"/>
      <point x="570" y="532"/>
      <point x="540" y="576"/>
      <point x="499" y="602"/>
      <point x="451" y="613"/>
      <point x="427" y="613" type="qcurve"/>
      <point x="366" y="613"/>
      <point x="266" y="555"/>
      <point x="195" y="464"/>
      <point x="156" y="354"/>
      <point x="156" y="302" type="qcurve"/>
      <point x="156" y="260"/>
      <point x="178" y="185"/>
      <point x="220" y="128"/>
      <point x="281" y="95"/>
      <point x="320" y="95" type="qcurve"/>
      <point x="344" y="95"/>
      <point x="399" y="108"/>
      <point x="452" y="137"/>
      <point x="501" y="181"/>
      <point x="521" y="212" type="qcurve"/>
      <point x="603" y="159" type="line"/>
      <point x="579" y="119"/>
      <point x="507" y="58"/>
      <point x="423" y="16"/>
      <point x="334" y="-6"/>
    </contour>
    <contour>
      <point x="429" y="801" type="line"/>
      <point x="454" y="916" type="line"/>
      <point x="552" y="916" type="line"/>
      <point x="528" y="801" type="line"/>
    </contour>
  </outline>
</glyph>
<glyph name="Dcroat" format="1">
  <advance width="698"/>
  <unicode hex="0110"/>
  <outline>
    <contour>
      <point x="57" y="399" type="line"/>
      <point x="106" y="399" type="line"/>
      <point x="172" y="710" type="line"/>
      <point x="413" y="710" type="line"/>
      <point x="481" y="710"/>
      <point x="581" y="668"/>
      <point x="646" y="594"/>
      <point x="678" y="494"/>
      <point x="678" y="436" type="qcurve"/>
      <point x="678" y="342"/>
      <point x="615" y="182"/>
      <point x="504" y="66"/>
      <point x="351" y="0"/>
      <point x="262" y="0" type="qcurve"/>
      <point x="21" y="0" type="line"/>
      <point x="88" y="315" type="line"/>
      <point x="39" y="315" type="line"/>
    </contour>
    <contour>
      <point x="283" y="99" type="line"/>
      <point x="347" y="99"/>
      <point x="450" y="151"/>
      <point x="523" y="240"/>
      <point x="562" y="356"/>
      <point x="562" y="419" type="qcurve"/>
      <point x="562" y="461"/>
      <point x="540" y="531"/>
      <point x="498" y="582"/>
      <point x="434" y="611"/>
      <point x="392" y="611" type="qcurve"/>
      <point x="264" y="611" type="line"/>
      <point x="219" y="399" type="line"/>
      <point x="359" y="399" type="line"/>
      <point x="342" y="315" type="line"/>
      <point x="201" y="315" type="line"/>
      <point x="155" y="99" type="line"/>
    </contour>
  </outline>
</glyph>
<glyph name="ebreve" format="1">
  <advance width="545"/>
  <unicode hex="0115"/>
  <outline>
    <contour>
      <point x="229" y="-10" type="qcurve"/>
      <point x="179" y="-10"/>
      <point x="102" y="24"/>
      <point x="48" y="83"/>
      <point x="20" y="164"/>
      <point x="20" y="211" type="qcurve"/>
      <point x="20" y="275"/>
      <point x="69" y="391"/>
      <point x="156" y="479"/>
      <point x="275" y="532"/>
      <point x="344" y="532" type="qcurve"/>
      <point x="425" y="532"/>
      <point x="522" y="459"/>
      <point x="522" y="388" type="qcurve"/>
      <point x="522" y="224"/>
      <point x="229" y="224" type="qcurve"/>
      <point x="186" y="224"/>
      <point x="132" y="227" type="qcurve"/>
      <point x="132" y="209" type="line"/>
      <point x="132" y="180"/>
      <point x="146" y="130"/>
      <point x="174" y="92"/>
      <point x="218" y="71"/>
      <point x="248" y="71" type="qcurve"/>
      <point x="291" y="71"/>
      <point x="371" y="114"/>
      <point x="394" y="151" type="qcurve"/>
      <point x="481" y="124" type="line"/>
      <point x="462" y="94"/>
      <point x="407" y="45"/>
      <point x="341" y="10"/>
      <point x="267" y="-10"/>
    </contour>
    <contour>
      <point x="330" y="451" type="qcurve"/>
      <point x="294" y="451"/>
      <point x="234" y="426"/>
      <point x="188" y="384"/>
      <point x="156" y="329"/>
      <point x="146" y="299" type="qcurve"/>
      <point x="192" y="296"/>
      <point x="231" y="296" type="qcurve"/>
      <point x="284" y="296"/>
      <point x="356" y="309"/>
      <point x="401" y="332"/>
      <point x="420" y="365"/>
      <point x="420" y="385" type="qcurve"/>
      <point x="420" y="419"/>
      <point x="372" y="451"/>
    </contour>
    <contour>
      <point x="357" y="659" type="qcurve"/>
      <point x="378" y="659"/>
      <point x="418" y="699"/>
      <point x="427" y="730" type="qcurve"/>
      <point x="488" y="730" type="line"/>
      <point x="482" y="704"/>
      <point x="455" y="659"/>
      <point x="417" y="626"/>
      <point x="371" y="608"/>
      <point x="346" y="608" type="qcurve"/>
      <point x="303" y="608"/>
      <point x="252" y="659"/>
      <point x="252" y="701" type="qcurve"/>
      <point x="252" y="709"/>
      <point x="254" y="723"/>
      <point x="256" y="730" type="qcurve"/>
      <point x="317" y="730" type="line"/>
      <point x="316" y="725"/>
      <point x="315" y="717"/>
      <point x="315" y="712" type="qcurve"/>
      <point x="315" y="690"/>
      <point x="338" y="659"/>
    </contour>
  </outline>
</glyph>
<glyph name="Edotaccent" format="1">
  <advance width="579"/>
  <unicode hex="0116"/>
  <outline>
    <contour>
      <point x="166" y="710" type="line"/>
      <point x="621" y="710" type="line"/>
      <point x="600" y="611" type="line"/>
      <point x="258" y="611" type="line"/>
      <point x="215" y="409" type="line"/>
      <point x="511" y="409" type="line"/>
      <point x="492" y="316" type="line"/>
      <point x="195" y="316" type="line"/>
      <point x="149" y="99" type="line"/>
      <point x="500" y="99" type="line"/>
      <point x="479" y="0" type="line"/>
      <point x="15" y="0" type="line"/>
    </contour>
    <contour>
      <point x="364" y="801" type="line"/>
      <point x="389" y="916" type="line"/>
      <point x="487" y="916" type="line"/>
      <point x="463" y="801" type="line"/>
    </contour>
  </outline>
</glyph>
<glyph name="Ecaron" format="1">
  <advance width="579"/>
  <unicode hex="011A"/>
  <outline>
    <contour>
      <point x="288" y="888" type="line"/>
      <point x="352" y="916" type="line"/>
      <point x="419" y="853" type="line"/>
      <point x="513" y="916" type="line"/>
      <point x="565" y="888" type="line"/>
      <point x="446" y="793" type="line"/>
      <point x="366" y="793" type="line"/>
    </contour>
    <contour>
      <point x="166" y="710" type="line"/>
      <point x="621" y="710" type="line"/>
      <point x="600" y="611" type="line"/>
      <point x="258" y="611" type="line"/>
      <point x="215" y="409" type="line"/>
      <point x="511" y="409" type="line"/>
      <point x="492" y="316" type="line"/>
      <point x="195" y="316" type="line"/>
      <point x="149" y="99" type="line"/>
      <point x="500" y="99" type="line"/>
      <point x="479" y="0" type="line"/>
      <point x="15" y="0" type="line"/>
    </contour>
  </outline>
</glyph>
<glyph name="ibreve" format="1">
  <advance width="239"/>
  <unicode hex="012D"/>
  <outline>
    <contour>
      <point x="112" y="523" type="line"/>
      <point x="222" y="523" type="line"/>
      <point x="110" y="0" type="line"/>
      <point x="0" y="0" type="line"/>
    </contour>
    <contour>
      <point x="185" y="659" type="qcurve"/>
      <point x="206" y="659"/>
      <point x="246" y="699"/>
      <point x="255" y="730" type="qcurve"/>
      <point x="316" y="730" type="line"/>
      <point x="310" y="704"/>
      <point x="283" y="659"/>
      <point x="245" y="626"/>
      <point x="199" y="608"/>
      <point x="174" y="608" type="qcurve"/>
      <point x="131" y="608"/>
      <point x="80" y="659"/>
      <point x="80" y="701" type="qcurve"/>
      <point x="80" y="709"/>
      <point x="82" y="723"/>
      <point x="84" y="730" type="qcurve"/>
      <point x="145" y="730" type="line"/>
      <point x="144" y="725"/>
      <point x="143" y="717"/>
      <point x="143" y="712" type="qcurve"/>
      <point x="143" y="690"/>
      <point x="166" y="659"/>
    </contour>
  </outline>
</glyph>
<glyph name="IJ" format="1">
  <advance width="746"/>
  <unicode hex="0132"/>
  <outline>
    <contour>
      <point x="166" y="709" type="line"/>
      <point x="279" y="709" type="line"/>
      <point x="128" y="0" type="line"/>
      <point x="15" y="0" type="line"/>
    </contour>
    <contour>
      <point x="367" y="-11" type="qcurve"/>
      <point x="282" y="-11"/>
      <point x="230" y="33" type="qcurve"/>
      <point x="276" y="125" type="line"/>
      <point x="289" y="113"/>
      <point x="347" y="90"/>
      <point x="388" y="90" type="qcurve"/>
      <point x="431" y="90"/>
      <point x="489" y="123"/>
      <point x="530" y="188"/>
      <point x="559" y="285"/>
      <point x="573" y="349" type="qcurve"/>
      <point x="650" y="709" type="line"/>
      <point x="762" y="709" type="line"/>
      <point x="685" y="349" type="line"/>
      <point x="668" y="268"/>
      <point x="625" y="135"/>
      <point x="554" y="41"/>
      <point x="448" y="-11"/>
    </contour>
  </outline>
</glyph>
<glyph name="ij" format="1">
  <advance width="483"/>
  <unicode hex="0133"/>
  <outline>
    <contour>
      <point x="112" y="523" type="line"/>
      <point x="222" y="523" type="line"/>
      <point x="110" y="0" type="line"/>
      <point x="0" y="0" type="line"/>
    </contour>
    <contour>
      <point x="155" y="730" type="line"/>
      <point x="265" y="730" type="line"/>
      <point x="240" y="609" type="line"/>
      <point x="130" y="609" type="line"/>
    </contour>
    <contour>
      <point x="149" y="-191" type="qcurve"/>
      <point x="114" y="-191"/>
      <point x="57" y="-169"/>
      <point x="37" y="-146" type="qcurve"/>
      <point x="101" y="-72" type="line"/>
      <point x="111" y="-84"/>
      <point x="140" y="-95"/>
      <point x="156" y="-95" type="qcurve"/>
      <point x="183" y="-95"/>
      <point x="234" y="-52"/>
      <point x="241" y="-19" type="qcurve"/>
      <point x="356" y="523" type="line"/>
      <point x="466" y="523" type="line"/>
      <point x="353" y="-11" type="line"/>
      <point x="344" y="-51"/>
      <point x="304" y="-117"/>
      <point x="248" y="-165"/>
      <point x="183" y="-191"/>
    </contour>
    <contour>
      <point x="400" y="730" type="line"/>
      <point x="510" y="730" type="line"/>
      <point x="484" y="609" type="line"/>
      <point x="374" y="609" type="line"/>
    </contour>
  </outline>
</glyph>
<glyph name="Lslash" format="1">
  <advance width="567"/>
  <unicode hex="0141"/>
  <outline>
    <contour>
      <point x="6" y="298" type="line"/>
      <point x="99" y="357" type="line"/>
      <point x="174" y="710" type="line"/>
      <point x="286" y="710" type="line"/>
      <point x="228" y="439" type="line"/>
      <point x="363" y="524" type="line"/>
      <point x="379" y="464" type="line"/>
      <point x="211" y="357" type="line"/>
      <point x="156" y="99" type="line"/>
      <point x="513" y="99" type="line"/>
      <point x="492" y="0" type="line"/>
      <point x="23" y="0" type="line"/>
      <point x="81" y="275" type="line"/>
      <point x="22" y="237" type="line"/>
    </contour>
  </outline>
</glyph>
<glyph name="OE" format="1">
  <advance width="1055"/>
  <unicode hex="0152"/>
  <outline>
    <contour>
      <point x="292" y="-5" type="qcurve"/>
      <point x="232" y="-5"/>
      <point x="138" y="44"/>
      <point x="74" y="125"/>
      <point x="41" y="231"/>
      <point x="41" y="288" type="qcurve"/>
      <point x="41" y="369"/>
      <point x="109" y="523"/>
      <point x="221" y="643"/>
      <point x="368" y="715"/>
      <point x="447" y="715" type="qcurve"/>
      <point x="481" y="715"/>
      <point x="539" y="694"/>
      <point x="584" y="657"/>
      <point x="616" y="607"/>
      <point x="626" y="578" type="qcurve"/>
      <point x="653" y="710" type="line"/>
      <point x="1099" y="710" type="line"/>
      <point x="1078" y="611" type="line"/>
      <point x="745" y="611" type="line"/>
      <point x="703" y="411" type="line"/>
      <point x="984" y="411" type="line"/>
      <point x="963" y="312" type="line"/>
      <point x="682" y="312" type="line"/>
      <point x="636" y="99" type="line"/>
      <point x="977" y="99" type="line"/>
      <point x="956" y="0" type="line"/>
      <point x="502" y="0" type="line"/>
      <point x="531" y="132" type="line"/>
      <point x="508" y="103"/>
      <point x="453" y="53"/>
      <point x="392" y="16"/>
      <point x="326" y="-5"/>
    </contour>
    <contour>
      <point x="314" y="96" type="qcurve"/>
      <point x="371" y="96"/>
      <point x="469" y="154"/>
      <point x="541" y="245"/>
      <point x="582" y="358"/>
      <point x="582" y="413" type="qcurve"/>
      <point x="582" y="453"/>
      <point x="561" y="526"/>
      <point x="521" y="581"/>
      <point x="462" y="614"/>
      <point x="424" y="614" type="qcurve"/>
      <point x="367" y="614"/>
      <point x="269" y="557"/>
      <point x="197" y="465"/>
      <point x="156" y="352"/>
      <point x="156" y="297" type="qcurve"/>
      <point x="156" y="256"/>
      <point x="176" y="184"/>
      <point x="216" y="128"/>
      <point x="275" y="96"/>
    </contour>
  </outline>
</glyph>
<glyph name="Sacute" format="1">
  <advance width="590"/>
  <unicode hex="015A"/>
  <outline>
    <contour>
      <point x="422" y="802" type="line"/>
      <point x="352" y="820" type="line"/>
      <point x="428" y="930" type="line"/>
      <point x="533" y="930" type="line"/>
    </contour>
    <contour>
      <point x="243" y="-7" type="qcurve"/>
      <point x="166" y="-7"/>
      <point x="31" y="42"/>
      <point x="-17" y="89" type="qcurve"/>
      <point x="56" y="185" type="line"/>
      <point x="64" y="172"/>
      <point x="103" y="140"/>
      <point x="158" y="113"/>
      <point x="227" y="94"/>
      <point x="266" y="94" type="qcurve"/>
      <point x="338" y="94"/>
      <point x="414" y="151"/>
      <point x="414" y="202" type="qcurve"/>
      <point x="414" y="224"/>
      <point x="391" y="255"/>
      <point x="350" y="279"/>
      <point x="291" y="298"/>
      <point x="255" y="309" type="qcurve"/>
      <point x="175" y="332"/>
      <point x="92" y="399"/>
      <point x="92" y="461" type="qcurve"/>
      <point x="92" y="521"/>
      <point x="140" y="615"/>
      <point x="221" y="681"/>
      <point x="328" y="715"/>
      <point x="388" y="715" type="qcurve"/>
      <point x="457" y="715"/>
      <point x="565" y="669"/>
      <point x="601" y="635" type="qcurve"/>
      <point x="531" y="543" type="line"/>
      <point x="525" y="554"/>
      <point x="493" y="579"/>
      <point x="449" y="601"/>
      <point x="394" y="615"/>
      <point x="364" y="615" type="qcurve"/>
      <point x="288" y="615"/>
      <point x="215" y="550"/>
      <point x="215" y="499" type="qcurve"/>
      <point x="215" y="479"/>
      <point x="233" y="451"/>
      <point x="269" y="430"/>
      <point x="322" y="412"/>
      <point x="357" y="403" type="qcurve"/>
      <point x="399" y="392"/>
      <point x="466" y="364"/>
      <point x="514" y="326"/>
      <point x="540" y="273"/>
      <point x="540" y="236" type="qcurve"/>
      <point x="540" y="173"/>
      <point x="491" y="81"/>
      <point x="408" y="21"/>
      <point x="301" y="-7"/>
    </contour>
  </outline>
</glyph>
<glyph name="uni015E" format="1">
  <advance width="590"/>
  <unicode hex="015E"/>
  <outline>
    <contour>
      <point x="144" y="-126" type="line"/>
      <point x="154" y="-133"/>
      <point x="198" y="-146"/>
      <point x="223" y="-146" type="qcurve"/>
      <point x="252" y="-146"/>
      <point x="286" y="-127"/>
      <point x="286" y="-105" type="qcurve"/>
      <point x="286" y="-90"/>
      <point x="262" y="-78"/>
      <point x="243" y="-78" type="qcurve"/>
      <point x="223" y="-78"/>
      <point x="177" y="-86"/>
      <point x="164" y="-90" type="qcurve"/>
      <point x="223" y="-6" type="line"/>
      <point x="152" y="-3"/>
      <point x="28" y="45"/>
      <point x="-17" y="89" type="qcurve"/>
      <point x="56" y="185" type="line"/>
      <point x="64" y="172"/>
      <point x="103" y="140"/>
      <point x="158" y="113"/>
      <point x="227" y="94"/>
      <point x="266" y="94" type="qcurve"/>
      <point x="338" y="94"/>
      <point x="414" y="151"/>
      <point x="414" y="202" type="qcurve"/>
      <point x="414" y="224"/>
      <point x="391" y="255"/>
      <point x="350" y="279"/>
      <point x="291" y="298"/>
      <point x="255" y="309" type="qcurve"/>
      <point x="175" y="332"/>
      <point x="92" y="399"/>
      <point x="92" y="461" type="qcurve"/>
      <point x="92" y="521"/>
      <point x="140" y="615"/>
      <point x="221" y="681"/>
      <point x="328" y="715"/>
      <point x="388" y="715" type="qcurve"/>
      <point x="457" y="715"/>
      <point x="565" y="669"/>
      <point x="601" y="635" type="qcurve"/>
      <point x="531" y="543" type="line"/>
      <point x="525" y="554"/>
      <point x="493" y="579"/>
      <point x="449" y="601"/>
      <point x="394" y="615"/>
      <point x="364" y="615" type="qcurve"/>
      <point x="288" y="615"/>
      <point x="215" y="550"/>
      <point x="215" y="499" type="qcurve"/>
      <point x="215" y="479"/>
      <point x="233" y="451"/>
      <point x="269" y="430"/>
      <point x="322" y="412"/>
      <point x="357" y="403" type="qcurve"/>
      <point x="399" y="392"/>
      <point x="466" y="364"/>
      <point x="514" y="326"/>
      <point x="540" y="273"/>
      <point x="540" y="236" type="qcurve"/>
      <point x="540" y="177"/>
      <point x="497" y="89"/>
      <point x="424" y="29"/>
      <point x="327" y="-3"/>
      <point x="274" y="-6" type="qcurve"/>
      <point x="242" y="-45" type="line"/>
      <point x="250" y="-43"/>
      <point x="267" y="-41"/>
      <point x="274" y="-41" type="qcurve"/>
      <point x="303" y="-41"/>
      <point x="340" y="-67"/>
      <point x="340" y="-94" type="qcurve"/>
      <point x="340" y="-135"/>
      <point x="273" y="-189"/>
      <point x="206" y="-189" type="qcurve"/>
      <point x="176" y="-189"/>
      <point x="128" y="-177"/>
      <point x="111" y="-169" type="qcurve"/>
    </contour>
  </outline>
</glyph>
<glyph name="ubreve" format="1">
  <advance width="586"/>
  <unicode hex="016D"/>
  <outline>
    <contour>
      <point x="150" y="-10" type="qcurve"/>
      <point x="28" y="-10"/>
      <point x="28" y="120" type="qcurve"/>
      <point x="28" y="157"/>
      <point x="38" y="203" type="qcurve"/>
      <point x="107" y="523" type="line"/>
      <point x="216" y="523" type="line"/>
      <point x="152" y="225" type="line"/>
      <point x="145" y="193"/>
      <point x="145" y="165" type="qcurve"/>
      <point x="145" y="84"/>
      <point x="214" y="84" type="qcurve"/>
      <point x="258" y="84"/>
      <point x="347" y="142"/>
      <point x="381" y="197" type="qcurve"/>
      <point x="450" y="523" type="line"/>
      <point x="560" y="523" type="line"/>
      <point x="477" y="130" type="line"/>
      <point x="474" y="121"/>
      <point x="474" y="115" type="qcurve"/>
      <point x="474" y="96"/>
      <point x="497" y="94" type="qcurve"/>
      <point x="478" y="0" type="line"/>
      <point x="463" y="-2"/>
      <point x="441" y="-5"/>
      <point x="432" y="-5" type="qcurve"/>
      <point x="402" y="-5"/>
      <point x="368" y="20"/>
      <point x="368" y="45" type="qcurve"/>
      <point x="368" y="53"/>
      <point x="372" y="79"/>
      <point x="377" y="106" type="qcurve"/>
      <point x="332" y="49"/>
      <point x="214" y="-10"/>
    </contour>
    <contour>
      <point x="349" y="659" type="qcurve"/>
      <point x="370" y="659"/>
      <point x="410" y="699"/>
      <point x="419" y="730" type="qcurve"/>
      <point x="480" y="730" type="line"/>
      <point x="474" y="704"/>
      <point x="447" y="659"/>
      <point x="409" y="626"/>
      <point x="363" y="608"/>
      <point x="338" y="608" type="qcurve"/>
      <point x="295" y="608"/>
      <point x="244" y="659"/>
      <point x="244" y="701" type="qcurve"/>
      <point x="244" y="709"/>
      <point x="246" y="723"/>
      <point x="248" y="730" type="qcurve"/>
      <point x="309" y="730" type="line"/>
      <point x="308" y="725"/>
      <point x="307" y="717"/>
      <point x="307" y="712" type="qcurve"/>
      <point x="307" y="690"/>
      <point x="330" y="659"/>
    </contour>
  </outline>
</glyph>
<glyph name="Uring" format="1">
  <advance width="721"/>
  <unicode hex="016E"/>
  <outline>
    <contour>
      <point x="384" y="829" type="qcurve"/>
      <point x="384" y="869"/>
      <point x="444" y="916"/>
      <point x="488" y="916" type="qcurve"/>
      <point x="523" y="916"/>
      <point x="560" y="885"/>
      <point x="560" y="857" type="qcurve"/>
      <point x="560" y="818"/>
      <point x="502" y="770"/>
      <point x="457" y="770" type="qcurve"/>
      <point x="423" y="770"/>
      <point x="384" y="802"/>
    </contour>
    <contour>
      <point x="480" y="880" type="qcurve"/>
      <point x="462" y="880"/>
      <point x="434" y="856"/>
      <point x="434" y="837" type="qcurve"/>
      <point x="434" y="824"/>
      <point x="451" y="806"/>
      <point x="465" y="806" type="qcurve"/>
      <point x="482" y="806"/>
      <point x="512" y="831"/>
      <point x="512" y="850" type="qcurve"/>
      <point x="512" y="864"/>
      <point x="494" y="880"/>
    </contour>
    <contour>
      <point x="296" y="-5" type="qcurve"/>
      <point x="233" y="-5"/>
      <point x="145" y="32"/>
      <point x="91" y="96"/>
      <point x="66" y="183"/>
      <point x="66" y="233" type="qcurve"/>
      <point x="66" y="288"/>
      <point x="80" y="350" type="qcurve"/>
      <point x="156" y="710" type="line"/>
      <point x="269" y="710" type="line"/>
      <point x="192" y="350" type="line"/>
      <point x="181" y="297"/>
      <point x="181" y="253" type="qcurve"/>
      <point x="181" y="220"/>
      <point x="195" y="162"/>
      <point x="227" y="120"/>
      <point x="279" y="96"/>
      <point x="317" y="96" type="qcurve"/>
      <point x="369" y="96"/>
      <point x="447" y="140"/>
      <point x="504" y="211"/>
      <point x="541" y="302"/>
      <point x="551" y="350" type="qcurve"/>
      <point x="627" y="710" type="line"/>
      <point x="740" y="710" type="line"/>
      <point x="663" y="350" type="line"/>
      <point x="648" y="277"/>
      <point x="588" y="148"/>
      <point x="497" y="51"/>
      <point x="374" y="-5"/>
    </contour>
  </outline>
</glyph>
<glyph name="Einvertedbreve" format="1">
  <advance width="579"/>
  <unicode hex="0206"/>
  <outline>
    <contour>
      <point x="299" y="794" type="line"/>
      <point x="305" y="820"/>
      <point x="332" y="865"/>
      <point x="369" y="898"/>
      <point x="415" y="916"/>
      <point x="440" y="916" type="qcurve"/>
      <point x="483" y="916"/>
      <point x="534" y="861"/>
      <point x="534" y="821" type="qcurve"/>
      <point x="534" y="814"/>
      <point x="532" y="801"/>
      <point x="530" y="794" type="qcurve"/>
      <point x="471" y="794" type="line"/>
      <point x="472" y="802"/>
      <point x="473" y="814"/>
      <point x="473" y="821" type="qcurve"/>
      <point x="473" y="865"/>
      <point x="431" y="865" type="qcurve"/>
      <point x="401" y="865"/>
      <point x="367" y="827"/>
      <point x="359" y="794" type="qcurve"/>
    </contour>
    <contour>
      <point x="166" y="710" type="line"/>
      <point x="621" y="710" type="line"/>
      <point x="600" y="611" type="line"/>
      <point x="258" y="611" type="line"/>
      <point x="215" y="409" type="line"/>
      <point x="511" y="409" type="line"/>
      <point x="492" y="316" type="line"/>
      <point x="195" y="316" type="line"/>
      <point x="149" y="99" type="line"/>
      <point x="500" y="99" type="line"/>
      <point x="479" y="0" type="line"/>
      <point x="15" y="0" type="line"/>
    </contour>
  </outline>
</glyph>
<glyph name="Rinvertedbreve" format="1">
  <advance width="637"/>
  <unicode hex="0212"/>
  <outline>
    <contour>
      <point x="299" y="794" type="line"/>
      <point x="305" y="820"/>
      <point x="332" y="865"/>
      <point x="369" y="898"/>
      <point x="415" y="916"/>
      <point x="440" y="916" type="qcurve"/>
      <point x="483" y="916"/>
      <point x="534" y="861"/>
      <point x="534" y="821" type="qcurve"/>
      <point x="534" y="814"/>
      <point x="532" y="801"/>
      <point x="530" y="794" type="qcurve"/>
      <point x="471" y="794" type="line"/>
      <point x="472" y="802"/>
      <point x="473" y="814"/>
      <point x="473" y="821" type="qcurve"/>
      <point x="473" y="865"/>
      <point x="431" y="865" type="qcurve"/>
      <point x="401" y="865"/>
      <point x="367" y="827"/>
      <point x="359" y="794" type="qcurve"/>
    </contour>
    <contour>
      <point x="15" y="0" type="line"/>
      <point x="166" y="710" type="line"/>
      <point x="461" y="710" type="line"/>
      <point x="500" y="710"/>
      <point x="562" y="678"/>
      <point x="605" y="624"/>
      <point x="627" y="555"/>
      <point x="627" y="518" type="qcurve"/>
      <point x="627" y="478"/>
      <point x="599" y="400"/>
      <point x="551" y="333"/>
      <point x="486" y="282"/>
      <point x="448" y="270" type="qcurve"/>
      <point x="548" y="0" type="line"/>
      <point x="421" y="0" type="line"/>
      <point x="329" y="247" type="line"/>
      <point x="180" y="247" type="line"/>
      <point x="128" y="0" type="line"/>
    </contour>
    <contour>
      <point x="382" y="346" type="line"/>
      <point x="407" y="346"/>
      <point x="454" y="373"/>
      <point x="490" y="418"/>
      <point x="511" y="476"/>
      <point x="511" y="506" type="qcurve"/>
      <point x="511" y="551"/>
      <point x="467" y="611"/>
      <point x="433" y="611" type="qcurve"/>
      <point x="258" y="611" type="line"/>
      <point x="201" y="346" type="line"/>
    </contour>
  </outline>
</glyph>
<glyph name="schwa" format="1">
  <advance width="572"/>
  <unicode hex="0259"/>
  <outline>
    <contour>
      <point x="216" y="-10" type="qcurve"/>
      <point x="166" y="-10"/>
      <point x="88" y="22"/>
      <point x="35" y="77"/>
      <point x="8" y="153"/>
      <point x="8" y="197" type="qcurve"/>
      <point x="8" y="220"/>
      <point x="17" y="274"/>
      <point x="26" y="297" type="qcurve"/>
      <point x="420" y="297" type="line"/>
      <point x="421" y="304"/>
      <point x="422" y="318"/>
      <point x="422" y="325" type="qcurve"/>
      <point x="422" y="382"/>
      <point x="358" y="450"/>
      <point x="308" y="450" type="qcurve"/>
      <point x="266" y="450"/>
      <point x="185" y="406"/>
      <point x="163" y="371" type="qcurve"/>
      <point x="75" y="398" type="line"/>
      <point x="94" y="427"/>
      <point x="148" y="476"/>
      <point x="214" y="512"/>
      <point x="290" y="532"/>
      <point x="330" y="532" type="qcurve"/>
      <point x="379" y="532"/>
      <point x="457" y="498"/>
      <point x="509" y="438"/>
      <point x="537" y="358"/>
      <point x="537" y="313" type="qcurve"/>
      <point x="537" y="250"/>
      <point x="488" y="134"/>
      <point x="402" y="44"/>
      <point x="284" y="-10"/>
    </contour>
    <contour>
      <point x="234" y="71" type="qcurve"/>
      <point x="263" y="71"/>
      <point x="317" y="94"/>
      <point x="364" y="136"/>
      <point x="399" y="193"/>
      <point x="408" y="227" type="qcurve"/>
      <point x="120" y="227" type="line"/>
      <point x="118" y="219"/>
      <point x="118" y="206"/>
      <point x="118" y="198" type="qcurve"/>
      <point x="118" y="141"/>
      <point x="182" y="71"/>
    </contour>
  </outline>
</glyph>
<glyph name="Ddotbelow" format="1">
  <advance width="692"/>
  <unicode hex="1E0C"/>
  <outline>
    <contour>
      <point x="175" y="-189" type="line"/>
      <point x="200" y="-73" type="line"/>
      <point x="299" y="-73" type="line"/>
      <point x="275" y="-189" type="line"/>
    </contour>
    <contour>
      <point x="166" y="710" type="line"/>
      <point x="407" y="710" type="line"/>
      <point x="475" y="710"/>
      <point x="575" y="668"/>
      <point x="640" y="594"/>
      <point x="672" y="494"/>
      <point x="672" y="436" type="qcurve"/>
      <point x="672" y="342"/>
      <point x="609" y="182"/>
      <point x="498" y="66"/>
      <point x="345" y="0"/>
      <point x="256" y="0" type="qcurve"/>
      <point x="15" y="0" type="line"/>
    </contour>
    <contour>
      <point x="277" y="99" type="line"/>
      <point x="341" y="99"/>
      <point x="444" y="151"/>
      <point x="517" y="240"/>
      <point x="556" y="356"/>
      <point x="556" y="419" type="qcurve"/>
      <point x="556" y="461"/>
      <point x="534" y="531"/>
      <point x="492" y="582"/>
      <point x="428" y="611"/>
      <point x="386" y="611" type="qcurve"/>
      <point x="258" y="611" type="line"/>
      <point x="149" y="99" type="line"/>
    </contour>
  </outline>
</glyph>
<glyph name="hdotbelow" format="1">
  <advance width="574"/>
  <unicode hex="1E25"/>
  <outline>
    <contour>
      <point x="155" y="730" type="line"/>
      <point x="265" y="730" type="line"/>
      <point x="199" y="418" type="line"/>
      <point x="239" y="472"/>
      <point x="349" y="532"/>
      <point x="407" y="532" type="qcurve"/>
      <point x="475" y="532"/>
      <point x="528" y="460"/>
      <point x="528" y="405" type="qcurve"/>
      <point x="528" y="385"/>
      <point x="523" y="342"/>
      <point x="518" y="319" type="qcurve"/>
      <point x="451" y="0" type="line"/>
      <point x="341" y="0" type="line"/>
      <point x="403" y="293" type="line"/>
      <point x="410" y="325"/>
      <point x="410" y="352" type="qcurve"/>
      <point x="410" y="394"/>
      <point x="374" y="434"/>
      <point x="341" y="434" type="qcurve"/>
      <point x="321" y="434"/>
      <point x="274" y="416"/>
      <point x="229" y="383"/>
      <point x="190" y="338"/>
      <point x="177" y="311" type="qcurve"/>
      <point x="110" y="0" type="line"/>
      <point x="0" y="0" type="line"/>
    </contour>
    <contour>
      <point x="131" y="-189" type="line"/>
      <point x="156" y="-73" type="line"/>
      <point x="255" y="-73" type="line"/>
      <point x="231" y="-189" type="line"/>
    </contour>
  </outline>
</glyph>
<glyph name="Ndotaccent" format="1">
  <advance width="736"/>
  <unicode hex="1E44"/>
  <outline>
    <contour>
      <point x="420" y="801" type="line"/>
      <point x="445" y="916" type="line"/>
      <point x="543" y="916" type="line"/>
      <point x="519" y="801" type="line"/>
    </contour>
    <contour>
      <point x="166" y="710" type="line"/>
      <point x="254" y="710" type="line"/>
      <point x="523" y="198" type="line"/>
      <point x="631" y="709" type="line"/>
      <point x="744" y="709" type="line"/>
      <point x="593" y="0" type="line"/>
      <point x="501" y="0" type="line"/>
      <point x="234" y="500" type="line"/>
      <point x="128" y="0" type="line"/>
      <point x="15" y="0" type="line"/>
    </contour>
  </outline>
</glyph>
<glyph name="Etilde" format="1">
  <advance width="579"/>
  <unicode hex="1EBC"/>
  <outline>
    <contour>
      <point x="166" y="710" type="line"/>
      <point x="621" y="710" type="line"/>
      <point x="600" y="611" type="line"/>
      <point x="258" y="611" type="line"/>
      <point x="215" y="409" type="line"/>
      <point x="511" y="409" type="line"/>
      <point x="492" y="316" type="line"/>
      <point x="195" y="316" type="line"/>
      <point x="149" y="99" type="line"/>
      <point x="500" y="99" type="line"/>
      <point x="479" y="0" type="line"/>
      <point x="15" y="0" type="line"/>
    </contour>
    <contour>
      <point x="468" y="801" type="qcurve"/>
      <point x="447" y="801"/>
      <point x="417" y="814"/>
      <point x="393" y="831"/>
      <point x="369" y="844"/>
      <point x="353" y="844" type="qcurve"/>
      <point x="337" y="844"/>
      <point x="316" y="830"/>
      <point x="303" y="813"/>
      <point x="298" y="797"/>
      <point x="298" y="796" type="qcurve"/>
      <point x="235" y="796" type="line"/>
      <point x="237" y="804"/>
      <point x="255" y="842"/>
      <point x="288" y="881"/>
      <point x="334" y="911"/>
      <point x="364" y="911" type="qcurve"/>
      <point x="385" y="911"/>
      <point x="413" y="897"/>
      <point x="437" y="881"/>
      <point x="461" y="867"/>
      <point x="478" y="867" type="qcurve"/>
      <point x="496" y="867"/>
      <point x="519" y="881"/>
      <point x="534" y="899"/>
      <point x="541" y="914"/>
      <point x="541" y="916" type="qcurve"/>
      <point x="603" y="916" type="line"/>
      <point x="601" y="910"/>
      <point x="583" y="872"/>
      <point x="549" y="832"/>
      <point x="500" y="801"/>
    </contour>
  </outline>
</glyph>
<glyph name="etilde" format="1">
  <advance width="545"/>
  <unicode hex="1EBD"/>
  <outline>
    <contour>
      <point x="229" y="-10" type="qcurve"/>
      <point x="179" y="-10"/>
      <point x="102" y="24"/>
      <point x="48" y="83"/>
      <point x="20" y="164"/>
      <point x="20" y="211" type="qcurve"/>
      <point x="20" y="275"/>
      <point x="69" y="391"/>
      <point x="156" y="479"/>
      <point x="275" y="532"/>
      <point x="344" y="532" type="qcurve"/>
      <point x="425" y="532"/>
      <point x="522" y="459"/>
      <point x="522" y="388" type="qcurve"/>
      <point x="522" y="224"/>
      <point x="229" y="224" type="qcurve"/>
      <point x="186" y="224"/>
      <point x="132" y="227" type="qcurve"/>
      <point x="132" y="209" type="line"/>
      <point x="132" y="180"/>
      <point x="146" y="130"/>
      <point x="174" y="92"/>
      <point x="218" y="71"/>
      <point x="248" y="71" type="qcurve"/>
      <point x="291" y="71"/>
      <point x="371" y="114"/>
      <point x="394" y="151" type="qcurve"/>
      <point x="481" y="124" type="line"/>
      <point x="462" y="94"/>
      <point x="407" y="45"/>
      <point x="341" y="10"/>
      <point x="267" y="-10"/>
    </contour>
    <contour>
      <point x="330" y="451" type="qcurve"/>
      <point x="294" y="451"/>
      <point x="234" y="426"/>
      <point x="188" y="384"/>
      <point x="156" y="329"/>
      <point x="146" y="299" type="qcurve"/>
      <point x="192" y="296"/>
      <point x="231" y="296" type="qcurve"/>
      <point x="284" y="296"/>
      <point x="356" y="309"/>
      <point x="401" y="332"/>
      <point x="420" y="365"/>
      <point x="420" y="385" type="qcurve"/>
      <point x="420" y="419"/>
      <point x="372" y="451"/>
    </contour>
    <contour>
      <point x="413" y="615" type="qcurve"/>
      <point x="392" y="615"/>
      <point x="362" y="628"/>
      <point x="338" y="645"/>
      <point x="314" y="658"/>
      <point x="298" y="658" type="qcurve"/>
      <point x="282" y="658"/>
      <point x="261" y="644"/>
      <point x="248" y="627"/>
      <point x="243" y="611"/>
      <point x="243" y="610" type="qcurve"/>
      <point x="180" y="610" type="line"/>
      <point x="182" y="618"/>
      <point x="200" y="656"/>
      <point x="233" y="695"/>
      <point x="279" y="725"/>
      <point x="309" y="725" type="qcurve"/>
      <point x="330" y="725"/>
      <point x="358" y="711"/>
      <point x="382" y="695"/>
      <point x="406" y="681"/>
      <point x="423" y="681" type="qcurve"/>
      <point x="441" y="681"/>
      <point x="464" y="695"/>
      <point x="479" y="713"/>
      <point x="486" y="728"/>
      <point x="486" y="730" type="qcurve"/>
      <point x="548" y="730" type="line"/>
      <point x="546" y="724"/>
      <point x="528" y="686"/>
      <point x="494" y="646"/>
      <point x="445" y="615"/>
    </contour>
  </outline>
</glyph>
<glyph name="quotedblbase" format="1">
  <advance width="388"/>
  <unicode hex="201E"/>
  <outline>
    <contour>
      <point x="-14" y="-123" type="line"/>
      <point x="33" y="0" type="line"/>
      <point x="-2" y="0" type="line"/>
      <point x="25" y="129" type="line"/>
      <point x="134" y="129" type="line"/>
      <point x="106" y="-1" type="line"/>
      <point x="49" y="-123" type="line"/>
    </contour>
    <contour>
      <point x="142" y="-123" type="line"/>
      <point x="189" y="0" type="line"/>
      <point x="155" y="0" type="line"/>
      <point x="182" y="129" type="line"/>
      <point x="291" y="129" type="line"/>
      <point x="263" y="-1" type="line"/>
      <point x="206" y="-123" type="line"/>
    </contour>
  </outline>
</glyph>
<glyph name="dagger" format="1">
  <advance width="429"/>
  <unicode hex="2020"/>
  <outline>
    <contour>
      <point x="71" y="-130" type="line"/>
      <point x="145" y="221" type="line"/>
      <point x="20" y="221" type="line"/>
      <point x="41" y="321" type="line"/>
      <point x="166" y="321" type="line"/>
      <point x="263" y="775" type="line"/>
      <point x="368" y="775" type="line"/>
      <point x="271" y="321" type="line"/>
      <point x="396" y="321" type="line"/>
      <point x="375" y="221" type="line"/>
      <point x="250" y="221" type="line"/>
      <point x="176" y="-130" type="line"/>
    </contour>
  </outline>
</glyph>
<glyph name="perthousand" format="1">
  <advance width="1088"/>
  <unicode hex="2030"/>
  <outline>
    <contour>
      <point x="223" y="423" type="qcurve"/>
      <point x="194" y="423"/>
      <point x="147" y="442"/>
      <point x="114" y="475"/>
      <point x="96" y="519"/>
      <point x="96" y="545" type="qcurve"/>
      <point x="96" y="581"/>
      <point x="128" y="644"/>
      <point x="180" y="692"/>
      <point x="247" y="720"/>
      <point x="282" y="720" type="qcurve"/>
      <point x="340" y="720"/>
      <point x="408" y="649"/>
      <point x="408" y="597" type="qcurve"/>
      <point x="408" y="562"/>
      <point x="376" y="499"/>
      <point x="324" y="451"/>
      <point x="258" y="423"/>
    </contour>
    <contour>
      <point x="234" y="480" type="qcurve"/>
      <point x="251" y="480"/>
      <point x="285" y="498"/>
      <point x="312" y="529"/>
      <point x="329" y="569"/>
      <point x="329" y="591" type="qcurve"/>
      <point x="329" y="621"/>
      <point x="296" y="663"/>
      <point x="270" y="663" type="qcurve"/>
      <point x="253" y="663"/>
      <point x="219" y="644"/>
      <point x="192" y="613"/>
      <point x="175" y="573"/>
      <point x="175" y="552" type="qcurve"/>
      <point x="175" y="522"/>
      <point x="208" y="480"/>
    </contour>
    <contour>
      <point x="484" y="-10" type="qcurve"/>
      <point x="426" y="-10"/>
      <point x="358" y="61"/>
      <point x="358" y="113" type="qcurve"/>
      <point x="358" y="148"/>
      <point x="390" y="211"/>
      <point x="442" y="259"/>
      <point x="509" y="287"/>
      <point x="544" y="287" type="qcurve"/>
      <point x="572" y="287"/>
      <point x="619" y="268"/>
      <point x="651" y="235"/>
      <point x="669" y="190"/>
      <point x="669" y="165" type="qcurve"/>
      <point x="669" y="129"/>
      <point x="638" y="66"/>
      <point x="586" y="18"/>
      <point x="519" y="-10"/>
    </contour>
    <contour>
      <point x="495" y="47" type="qcurve"/>
      <point x="513" y="47"/>
      <point x="547" y="66"/>
      <point x="574" y="97"/>
      <point x="591" y="137"/>
      <point x="591" y="158" type="qcurve"/>
      <point x="591" y="188"/>
      <point x="558" y="230"/>
      <point x="532" y="230" type="qcurve"/>
      <point x="514" y="230"/>
      <point x="480" y="212"/>
      <point x="453" y="181"/>
      <point x="436" y="141"/>
      <point x="436" y="119" type="qcurve"/>
      <point x="436" y="89"/>
      <point x="469" y="47"/>
    </contour>
    <contour>
      <point x="839" y="-10" type="qcurve"/>
      <point x="781" y="-10"/>
      <point x="712" y="61"/>
      <point x="712" y="113" type="qcurve"/>
      <point x="712" y="148"/>
      <point x="744" y="211"/>
      <point x="797" y="259"/>
      <point x="864" y="287"/>
      <point x="899" y="287" type="qcurve"/>
      <point x="927" y="287"/>
      <point x="974" y="268"/>
      <point x="1006" y="235"/>
      <point x="1024" y="190"/>
      <point x="1024" y="165" type="qcurve"/>
      <point x="1024" y="129"/>
      <point x="992" y="66"/>
      <point x="940" y="18"/>
      <point x="874" y="-10"/>
    </contour>
    <contour>
      <point x="850" y="47" type="qcurve"/>
      <point x="868" y="47"/>
      <point x="902" y="66"/>
      <point x="929" y="97"/>
      <point x="946" y="137"/>
      <point x="946" y="158" type="qcurve"/>
      <point x="946" y="188"/>
      <point x="913" y="230"/>
      <point x="887" y="230" type="qcurve"/>
      <point x="869" y="230"/>
      <point x="835" y="212"/>
      <point x="808" y="181"/>
      <point x="791" y="141"/>
      <point x="791" y="119" type="qcurve"/>
      <point x="791" y="89"/>
      <point x="824" y="47"/>
    </contour>
    <contour>
      <point x="32" y="40" type="line"/>
      <point x="370" y="373" type="line"/>
      <point x="692" y="716" type="line"/>
      <point x="734" y="671" type="line"/>
      <point x="403" y="342" type="line"/>
      <point x="73" y="-6" type="line"/>
    </contour>
  </outline>
</glyph>
<glyph name="threeinferior" format="1">
  <advance width="386"/>
  <unicode hex="2083"/>
  <outline>
    <contour>
      <point x="100" y="-87" type="qcurve"/>
      <point x="41" y="-87"/>
      <point x="-32" y="-45"/>
      <point x="-35" y="-5" type="qcurve"/>
      <point x="11" y="43" type="line"/>
      <point x="11" y="34"/>
      <point x="24" y="12"/>
      <point x="49" y="-7"/>
      <point x="87" y="-21"/>
      <point x="113" y="-21" type="qcurve"/>
      <point x="136" y="-21"/>
      <point x="177" y="-12"/>
      <point x="209" y="5"/>
      <point x="227" y="30"/>
      <point x="227" y="45" type="qcurve"/>
      <point x="227" y="73"/>
      <point x="159" y="101"/>
      <point x="99" y="101" type="qcurve"/>
      <point x="77" y="101" type="line"/>
      <point x="89" y="162" type="line"/>
      <point x="111" y="162" type="line"/>
      <point x="174" y="162"/>
      <point x="253" y="193"/>
      <point x="253" y="227" type="qcurve"/>
      <point x="253" y="250"/>
      <point x="206" y="275"/>
      <point x="177" y="275" type="qcurve"/>
      <point x="139" y="275"/>
      <point x="79" y="246"/>
      <point x="58" y="223" type="qcurve"/>
      <point x="26" y="276" type="line"/>
      <point x="39" y="290"/>
      <point x="76" y="313"/>
      <point x="119" y="328"/>
      <point x="166" y="336"/>
      <point x="189" y="336" type="qcurve"/>
      <point x="251" y="336"/>
      <point x="325" y="281"/>
      <point x="325" y="238" type="qcurve"/>
      <point x="325" y="197"/>
      <point x="267" y="144"/>
      <point x="215" y="134" type="qcurve"/>
      <point x="253" y="128"/>
      <point x="295" y="79"/>
      <point x="295" y="47" type="qcurve"/>
      <point x="295" y="14"/>
      <point x="261" y="-37"/>
      <point x="206" y="-70"/>
      <point x="136" y="-87"/>
    </contour>
  </outline>
</glyph>
<glyph name="seveninferior" format="1">
  <advance width="364"/>
  <unicode hex="2087"/>
  <outline>
    <contour>
      <point x="246" y="265" type="line"/>
      <point x="16" y="265" type="line"/>
      <point x="31" y="331" type="line"/>
      <point x="365" y="331" type="line"/>
      <point x="44" y="-82" type="line"/>
      <point x="-31" y="-82" type="line"/>
    </contour>
  </outline>
</glyph>
<glyph name="eightinferior" format="1">
  <advance width="399"/>
  <unicode hex="2088"/>
  <outline>
    <contour>
      <point x="310" y="53" type="qcurve"/>
      <point x="310" y="23"/>
      <point x="277" y="-29"/>
      <point x="223" y="-66"/>
      <point x="153" y="-87"/>
      <point x="116" y="-87" type="qcurve"/>
      <point x="85" y="-87"/>
      <point x="33" y="-70"/>
      <point x="-4" y="-41"/>
      <point x="-24" y="-2"/>
      <point x="-24" y="21" type="qcurve"/>
      <point x="-24" y="45"/>
      <point x="-6" y="82"/>
      <point x="24" y="111"/>
      <point x="63" y="132"/>
      <point x="83" y="140" type="qcurve"/>
      <point x="61" y="149"/>
      <point x="31" y="183"/>
      <point x="31" y="209" type="qcurve"/>
      <point x="31" y="236"/>
      <point x="63" y="281"/>
      <point x="114" y="313"/>
      <point x="176" y="331"/>
      <point x="205" y="331" type="qcurve"/>
      <point x="229" y="331"/>
      <point x="276" y="318"/>
      <point x="312" y="293"/>
      <point x="334" y="258"/>
      <point x="334" y="236" type="qcurve"/>
      <point x="334" y="201"/>
      <point x="281" y="152"/>
      <point x="246" y="140" type="qcurve"/>
      <point x="274" y="127"/>
      <point x="310" y="84"/>
    </contour>
    <contour>
      <point x="242" y="52" type="qcurve"/>
      <point x="242" y="65"/>
      <point x="228" y="86"/>
      <point x="204" y="101"/>
      <point x="174" y="109"/>
      <point x="158" y="109" type="qcurve"/>
      <point x="138" y="109"/>
      <point x="98" y="98"/>
      <point x="66" y="79"/>
      <point x="46" y="51"/>
      <point x="46" y="35" type="qcurve"/>
      <point x="46" y="22"/>
      <point x="61" y="2"/>
      <point x="85" y="-13"/>
      <point x="116" y="-21"/>
      <point x="132" y="-21" type="qcurve"/>
      <point x="151" y="-21"/>
      <point x="191" y="-10"/>
      <point x="222" y="9"/>
      <point x="242" y="36"/>
    </contour>
    <contour>
      <point x="98" y="209" type="qcurve"/>
      <point x="98" y="188"/>
      <point x="143" y="164"/>
      <point x="170" y="164" type="qcurve"/>
      <point x="185" y="164"/>
      <point x="219" y="172"/>
      <point x="247" y="187"/>
      <point x="265" y="208"/>
      <point x="265" y="222" type="qcurve"/>
      <point x="265" y="243"/>
      <point x="221" y="267"/>
      <point x="192" y="267" type="qcurve"/>
      <point x="156" y="267"/>
      <point x="98" y="236"/>
    </contour>
  </outline>
</glyph>
<glyph name="seveneighths" format="1">
  <advance width="845"/>
  <unicode hex="215E"/>
  <outline>
    <contour>
      <point x="23" y="40" type="line"/>
      <point x="361" y="373" type="line"/>
      <point x="684" y="716" type="line"/>
      <point x="726" y="671" type="line"/>
      <point x="394" y="342" type="line"/>
      <point x="65" y="-6" type="line"/>
    </contour>
    <contour>
      <point x="578" y="-5" type="qcurve"/>
      <point x="547" y="-5"/>
      <point x="496" y="12"/>
      <point x="459" y="41"/>
      <point x="439" y="80"/>
      <point x="439" y="103" type="qcurve"/>
      <point x="439" y="127"/>
      <point x="457" y="164"/>
      <point x="487" y="193"/>
      <point x="526" y="214"/>
      <point x="546" y="222" type="qcurve"/>
      <point x="524" y="231"/>
      <point x="494" y="265"/>
      <point x="494" y="291" type="qcurve"/>
      <point x="494" y="318"/>
      <point x="526" y="363"/>
      <point x="577" y="395"/>
      <point x="638" y="413"/>
      <point x="667" y="413" type="qcurve"/>
      <point x="692" y="413"/>
      <point x="738" y="400"/>
      <point x="774" y="375"/>
      <point x="796" y="340"/>
      <point x="796" y="318" type="qcurve"/>
      <point x="796" y="283"/>
      <point x="744" y="234"/>
      <point x="708" y="222" type="qcurve"/>
      <point x="737" y="209"/>
      <point x="772" y="166"/>
      <point x="772" y="135" type="qcurve"/>
      <point x="772" y="105"/>
      <point x="739" y="53"/>
      <point x="685" y="16"/>
      <point x="615" y="-5"/>
    </contour>
    <contour>
      <point x="594" y="61" type="qcurve"/>
      <point x="613" y="61"/>
      <point x="653" y="72"/>
      <point x="685" y="91"/>
      <point x="705" y="118"/>
      <point x="705" y="134" type="qcurve"/>
      <point x="705" y="161"/>
      <point x="653" y="191"/>
      <point x="620" y="191" type="qcurve"/>
      <point x="600" y="191"/>
      <point x="560" y="181"/>
      <point x="528" y="161"/>
      <point x="508" y="134"/>
      <point x="508" y="117" type="qcurve"/>
      <point x="508" y="104"/>
      <point x="523" y="84"/>
      <point x="547" y="69"/>
      <point x="578" y="61"/>
    </contour>
    <contour>
      <point x="632" y="246" type="qcurve"/>
      <point x="648" y="246"/>
      <point x="681" y="254"/>
      <point x="709" y="269"/>
      <point x="727" y="290"/>
      <point x="727" y="304" type="qcurve"/>
      <point x="727" y="325"/>
      <point x="683" y="349"/>
      <point x="654" y="349" type="qcurve"/>
      <point x="618" y="349"/>
      <point x="560" y="318"/>
      <point x="560" y="291" type="qcurve"/>
      <point x="560" y="280"/>
      <point x="573" y="264"/>
      <point x="593" y="252"/>
      <point x="619" y="246"/>
    </contour>
    <contour>
      <point x="346" y="664" type="line"/>
      <point x="116" y="664" type="line"/>
      <point x="130" y="730" type="line"/>
      <point x="464" y="730" type="line"/>
      <point x="144" y="318" type="line"/>
      <point x="69" y="318" type="line"/>
    </contour>
  </outline>
</glyph>
<glyph name="partialdiff" format="1">
  <advance width="565"/>
  <unicode hex="2202"/>
  <outline>
    <contour>
      <point x="252" y="-10" type="qcurve"/>
      <point x="203" y="-10"/>
      <point x="120" y="22"/>
      <point x="60" y="78"/>
      <point x="27" y="153"/>
      <point x="27" y="197" type="qcurve"/>
      <point x="27" y="245"/>
      <point x="68" y="332"/>
      <point x="137" y="398"/>
      <point x="227" y="436"/>
      <point x="277" y="436" type="qcurve"/>
      <point x="329" y="436"/>
      <point x="405" y="393"/>
      <point x="421" y="355" type="qcurve"/>
      <point x="423" y="370"/>
      <point x="425" y="404"/>
      <point x="425" y="423" type="qcurve"/>
      <point x="425" y="458"/>
      <point x="413" y="529"/>
      <point x="383" y="586"/>
      <point x="330" y="622"/>
      <point x="289" y="622" type="qcurve"/>
      <point x="252" y="622"/>
      <point x="179" y="596"/>
      <point x="160" y="575" type="qcurve"/>
      <point x="99" y="640" type="line"/>
      <point x="134" y="676"/>
      <point x="239" y="715"/>
      <point x="298" y="715" type="qcurve"/>
      <point x="409" y="715"/>
      <point x="526" y="561"/>
      <point x="526" y="394" type="qcurve"/>
      <point x="526" y="296"/>
      <point x="486" y="145"/>
      <point x="414" y="43"/>
      <point x="313" y="-10"/>
    </contour>
    <contour>
      <point x="256" y="80" type="qcurve"/>
      <point x="285" y="80"/>
      <point x="339" y="104"/>
      <point x="380" y="144"/>
      <point x="404" y="198"/>
      <point x="404" y="227" type="qcurve"/>
      <point x="404" y="253"/>
      <point x="385" y="298"/>
      <point x="351" y="331"/>
      <point x="305" y="350"/>
      <point x="279" y="350" type="qcurve"/>
      <point x="250" y="350"/>
      <point x="196" y="327"/>
      <point x="156" y="287"/>
      <point x="132" y="234"/>
      <point x="132" y="204" type="qcurve"/>
      <point x="132" y="178"/>
      <point x="151" y="133"/>
      <point x="184" y="99"/>
      <point x="230" y="80"/>
    </contour>
  </outline>
</glyph>
<glyph name="s_t" format="1">
  <advance width="810"/>
  <unicode hex="FB06"/>
  <outline>
    <contour>
      <point x="183" y="-10" type="qcurve"/>
      <point x="152" y="-10"/>
      <point x="92" y="1"/>
      <point x="38" y="21"/>
      <point x="-8" y="47"/>
      <point x="-24" y="62" type="qcurve"/>
      <point x="34" y="137" type="line"/>
      <point x="110" y="70"/>
      <point x="196" y="70" type="qcurve"/>
      <point x="218" y="70"/>
      <point x="260" y="80"/>
      <point x="292" y="101"/>
      <point x="311" y="130"/>
      <point x="311" y="150" type="qcurve"/>
      <point x="311" y="167"/>
      <point x="296" y="189"/>
      <point x="268" y="204"/>
      <point x="228" y="215"/>
      <point x="204" y="221" type="qcurve"/>
      <point x="170" y="229"/>
      <point x="114" y="246"/>
      <point x="75" y="272"/>
      <point x="53" y="312"/>
      <point x="53" y="344" type="qcurve"/>
      <point x="53" y="388"/>
      <point x="94" y="458"/>
      <point x="158" y="506"/>
      <point x="239" y="532"/>
      <point x="278" y="532" type="qcurve"/>
      <point x="304" y="532"/>
      <point x="370" y="518"/>
      <point x="393" y="501" type="qcurve"/>
      <point x="389" y="516"/>
      <point x="384" y="550"/>
      <point x="384" y="568" type="qcurve"/>
      <point x="384" y="601"/>
      <point x="405" y="663"/>
      <point x="454" y="711"/>
      <point x="533" y="741"/>
      <point x="591" y="741" type="qcurve"/>
      <point x="666" y="741"/>
      <point x="721" y="689"/>
      <point x="721" y="641" type="qcurve"/>
      <point x="721" y="618"/>
      <point x="711" y="558"/>
      <point x="704" y="523" type="qcurve"/>
      <point x="811" y="523" type="line"/>
      <point x="793" y="438" type="line"/>
      <point x="686" y="438" type="line"/>
      <point x="624" y="146" type="line"/>
      <point x="623" y="141"/>
      <point x="622" y="135"/>
      <point x="622" y="131" type="qcurve"/>
      <point x="622" y="111"/>
      <point x="645" y="93"/>
      <point x="664" y="93" type="qcurve"/>
      <point x="685" y="93"/>
      <point x="728" y="109"/>
      <point x="740" y="114" type="qcurve"/>
      <point x="743" y="27" type="line"/>
      <point x="731" y="22"/>
      <point x="699" y="10"/>
      <point x="663" y="-1"/>
      <point x="623" y="-8"/>
      <point x="604" y="-8" type="qcurve"/>
      <point x="561" y="-8"/>
      <point x="503" y="32"/>
      <point x="503" y="77" type="qcurve"/>
      <point x="503" y="88"/>
      <point x="507" y="113"/>
      <point x="510" y="127" type="qcurve"/>
      <point x="576" y="438" type="line"/>
      <point x="510" y="438" type="line"/>
      <point x="528" y="523" type="line"/>
      <point x="594" y="523" type="line"/>
      <point x="609" y="595"/>
      <point x="609" y="630" type="qcurve"/>
      <point x="609" y="663"/>
      <point x="583" y="689"/>
      <point x="551" y="689" type="qcurve"/>
      <point x="520" y="689"/>
      <point x="475" y="669"/>
      <point x="446" y="636"/>
      <point x="432" y="590"/>
      <point x="432" y="565" type="qcurve"/>
      <point x="432" y="548"/>
      <point x="437" y="516"/>
      <point x="445" y="490"/>
      <point x="452" y="471"/>
      <point x="455" y="467" type="qcurve"/>
      <point x="396" y="399" type="line"/>
      <point x="365" y="431"/>
      <point x="299" y="454"/>
      <point x="268" y="454" type="qcurve"/>
      <point x="247" y="454"/>
      <point x="206" y="444"/>
      <point x="175" y="424"/>
      <point x="156" y="393"/>
      <point x="156" y="371" type="qcurve"/>
      <point x="156" y="352"/>
      <point x="172" y="329"/>
      <point x="202" y="314"/>
      <point x="246" y="303"/>
      <point x="274" y="297" type="qcurve"/>
      <point x="308" y="290"/>
      <point x="361" y="273"/>
      <point x="398" y="246"/>
      <point x="417" y="206"/>
      <point x="417" y="176" type="qcurve"/>
      <point x="417" y="132"/>
      <point x="378" y="63"/>
      <point x="313" y="15"/>
      <point x="228" y="-10"/>
    </contour>
  </outline>
</glyph>
<glyph name="G.alt" format="1">
  <advance width="696"/>
  <outline>
    <contour>
      <point x="301" y="-5" type="qcurve"/>
      <point x="239" y="-5"/>
      <point x="143" y="44"/>
      <point x="77" y="126"/>
      <point x="42" y="233"/>
      <point x="42" y="292" type="qcurve"/>
      <point x="42" y="370"/>
      <point x="107" y="522"/>
      <point x="218" y="642"/>
      <point x="367" y="715"/>
      <point x="451" y="715" type="qcurve"/>
      <point x="537" y="715"/>
      <point x="652" y="634"/>
      <point x="677" y="565" type="qcurve"/>
      <point x="573" y="494" type="line"/>
      <point x="567" y="512"/>
      <point x="545" y="554"/>
      <point x="509" y="590"/>
      <point x="458" y="614"/>
      <point x="424" y="614" type="qcurve"/>
      <point x="367" y="614"/>
      <point x="269" y="557"/>
      <point x="197" y="466"/>
      <point x="156" y="353"/>
      <point x="156" y="297" type="qcurve"/>
      <point x="156" y="258"/>
      <point x="175" y="186"/>
      <point x="214" y="130"/>
      <point x="273" y="96"/>
      <point x="313" y="96" type="qcurve"/>
      <point x="350" y="96"/>
      <point x="421" y="125"/>
      <point x="481" y="172"/>
      <point x="527" y="233"/>
      <point x="541" y="266" type="qcurve"/>
      <point x="380" y="266" type="line"/>
      <point x="401" y="366" type="line"/>
      <point x="685" y="366" type="line"/>
      <point x="684" y="362"/>
      <point x="680" y="346"/>
      <point x="676" y="328"/>
      <point x="672" y="312"/>
      <point x="671" y="308" type="qcurve"/>
      <point x="654" y="245"/>
      <point x="584" y="131"/>
      <point x="486" y="46"/>
      <point x="367" y="-5"/>
    </contour>
  </outline>
</glyph>
<glyph name="N.sc" format="1">
  <advance width="646"/>
  <outline>
    <contour>
      <point x="334" y="707" type="move" name="top"/>
    </contour>
    <contour>
      <point x="335" y="0" type="move" name="bottom"/>
    </contour>
    <contour>
      <point x="127" y="555" type="line"/>
      <point x="204" y="555" type="line"/>
      <point x="448" y="177" type="line"/>
      <point x="528" y="555" type="line"/>
      <point x="628" y="555" type="line"/>
      <point x="510" y="0" type="line"/>
      <point x="428" y="0" type="line"/>
      <point x="187" y="370" type="line"/>
      <point x="108" y="0" type="line"/>
      <point x="9" y="0" type="line"/>
    </contour>
  </outline>
</glyph>
<glyph name="P.sc" format="1">
  <advance width="531"/>
  <outline>
    <contour>
      <point x="127" y="555" type="line"/>
      <point x="373" y="555" type="line"/>
      <point x="407" y="555"/>
      <point x="462" y="529"/>
      <point x="500" y="486"/>
      <point x="520" y="430"/>
      <point x="520" y="401" type="qcurve"/>
      <point x="520" y="362"/>
      <point x="485" y="286"/>
      <point x="425" y="226"/>
      <point x="345" y="189"/>
      <point x="299" y="189" type="qcurve"/>
      <point x="148" y="189" type="line"/>
      <point x="108" y="0" type="line"/>
      <point x="9" y="0" type="line"/>
    </contour>
    <contour>
      <point x="312" y="276" type="line"/>
      <point x="334" y="276"/>
      <point x="372" y="294"/>
      <point x="401" y="325"/>
      <point x="418" y="367"/>
      <point x="418" y="391" type="qcurve"/>
      <point x="418" y="426"/>
      <point x="378" y="467"/>
      <point x="348" y="467" type="qcurve"/>
      <point x="208" y="467" type="line"/>
      <point x="167" y="276" type="line"/>
    </contour>
  </outline>
</glyph>
<glyph name="a.alt" format="1">
  <advance width="607"/>
  <outline>
    <contour>
      <point x="204" y="-10" type="qcurve"/>
      <point x="160" y="-10"/>
      <point x="91" y="24"/>
      <point x="44" y="82"/>
      <point x="19" y="160"/>
      <point x="19" y="205" type="qcurve"/>
      <point x="19" y="270"/>
      <point x="68" y="389"/>
      <point x="149" y="479"/>
      <point x="253" y="532"/>
      <point x="309" y="532" type="qcurve"/>
      <point x="366" y="532"/>
      <point x="444" y="472"/>
      <point x="458" y="424" type="qcurve"/>
      <point x="479" y="517" type="line"/>
      <point x="589" y="517" type="line"/>
      <point x="479" y="0" type="line"/>
      <point x="369" y="0" type="line"/>
      <point x="389" y="93" type="line"/>
      <point x="354" y="45"/>
      <point x="260" y="-10"/>
    </contour>
    <contour>
      <point x="251" y="84" type="qcurve"/>
      <point x="298" y="84"/>
      <point x="379" y="142"/>
      <point x="408" y="187" type="qcurve"/>
      <point x="438" y="323" type="line"/>
      <point x="430" y="374"/>
      <point x="368" y="438"/>
      <point x="322" y="438" type="qcurve"/>
      <point x="285" y="438"/>
      <point x="218" y="400"/>
      <point x="166" y="338"/>
      <point x="135" y="262"/>
      <point x="135" y="223" type="qcurve"/>
      <point x="135" y="194"/>
      <point x="151" y="143"/>
      <point x="181" y="106"/>
      <point x="224" y="84"/>
    </contour>
  </outline>
</glyph>
<glyph name="c_t" format="1">
  <advance width="885"/>
  <outline>
    <contour>
      <point x="226" y="-10" type="qcurve"/>
      <point x="175" y="-10"/>
      <point x="98" y="26"/>
      <point x="45" y="86"/>
      <point x="19" y="166"/>
      <point x="19" y="210" type="qcurve"/>
      <point x="19" y="270"/>
      <point x="66" y="385"/>
      <point x="151" y="476"/>
      <point x="270" y="532"/>
      <point x="341" y="532" type="qcurve"/>
      <point x="388" y="532"/>
      <point x="445" y="510"/>
      <point x="471" y="490" type="qcurve"/>
      <point x="466" y="505"/>
      <point x="459" y="545"/>
      <point x="459" y="565" type="qcurve"/>
      <point x="459" y="603"/>
      <point x="486" y="668"/>
      <point x="537" y="715"/>
      <point x="611" y="741"/>
      <point x="659" y="741" type="qcurve"/>
      <point x="700" y="741"/>
      <point x="753" y="725"/>
      <point x="784" y="697"/>
      <point x="796" y="658"/>
      <point x="796" y="635" type="qcurve"/>
      <point x="796" y="610"/>
      <point x="786" y="553"/>
      <point x="779" y="523" type="qcurve"/>
      <point x="886" y="523" type="line"/>
      <point x="868" y="438" type="line"/>
      <point x="761" y="438" type="line"/>
      <point x="700" y="146" type="line"/>
      <point x="698" y="141"/>
      <point x="698" y="131" type="qcurve"/>
      <point x="698" y="111"/>
      <point x="722" y="93"/>
      <point x="739" y="93" type="qcurve"/>
      <point x="762" y="93"/>
      <point x="804" y="109"/>
      <point x="815" y="114" type="qcurve"/>
      <point x="819" y="27" type="line"/>
      <point x="796" y="17"/>
      <point x="720" y="-8"/>
      <point x="679" y="-8" type="qcurve"/>
      <point x="636" y="-8"/>
      <point x="578" y="33"/>
      <point x="578" y="78" type="qcurve"/>
      <point x="578" y="95"/>
      <point x="582" y="111" type="qcurve"/>
      <point x="652" y="438" type="line"/>
      <point x="585" y="438" type="line"/>
      <point x="604" y="523" type="line"/>
      <point x="669" y="523" type="line"/>
      <point x="676" y="552"/>
      <point x="685" y="603"/>
      <point x="685" y="623" type="qcurve"/>
      <point x="685" y="655"/>
      <point x="655" y="689"/>
      <point x="617" y="689" type="qcurve"/>
      <point x="587" y="689"/>
      <point x="546" y="666"/>
      <point x="519" y="628"/>
      <point x="507" y="579"/>
      <point x="507" y="554" type="qcurve"/>
      <point x="507" y="533"/>
      <point x="513" y="488"/>
      <point x="521" y="447"/>
      <point x="529" y="412"/>
      <point x="531" y="402" type="qcurve"/>
      <point x="418" y="368" type="line"/>
      <point x="406" y="403"/>
      <point x="354" y="438"/>
      <point x="317" y="438" type="qcurve"/>
      <point x="279" y="438"/>
      <point x="213" y="401"/>
      <point x="162" y="340"/>
      <point x="133" y="263"/>
      <point x="133" y="223" type="qcurve"/>
      <point x="133" y="194"/>
      <point x="149" y="143"/>
      <point x="178" y="105"/>
      <point x="220" y="84"/>
      <point x="246" y="84" type="qcurve"/>
      <point x="262" y="84"/>
      <point x="299" y="94"/>
      <point x="335" y="112"/>
      <point x="366" y="139"/>
      <point x="375" y="156" type="qcurve"/>
      <point x="475" y="124" type="line"/>
      <point x="456" y="93"/>
      <point x="401" y="43"/>
      <point x="336" y="9"/>
      <point x="263" y="-10"/>
    </contour>
  </outline>
</glyph>
<glyph name="eight.numerator" format="1">
  <advance width="398"/>
  <outline>
    <contour>
      <point x="394" y="452" type="qcurve"/>
      <point x="394" y="422"/>
      <point x="361" y="370"/>
      <point x="307" y="332"/>
      <point x="238" y="311"/>
      <point x="201" y="311" type="qcurve"/>
      <point x="170" y="311"/>
      <point x="118" y="328"/>
      <point x="81" y="357"/>
      <point x="61" y="397"/>
      <point x="61" y="420" type="qcurve"/>
      <point x="61" y="444"/>
      <point x="79" y="481"/>
      <point x="109" y="509"/>
      <point x="148" y="530"/>
      <point x="168" y="538" type="qcurve"/>
      <point x="146" y="547"/>
      <point x="116" y="582"/>
      <point x="116" y="607" type="qcurve"/>
      <point x="116" y="634"/>
      <point x="148" y="680"/>
      <point x="199" y="712"/>
      <point x="261" y="730"/>
      <point x="290" y="730" type="qcurve"/>
      <point x="314" y="730"/>
      <point x="360" y="717"/>
      <point x="396" y="692"/>
      <point x="418" y="657"/>
      <point x="418" y="635" type="qcurve"/>
      <point x="418" y="600"/>
      <point x="366" y="551"/>
      <point x="331" y="538" type="qcurve"/>
      <point x="359" y="526"/>
      <point x="394" y="482"/>
    </contour>
    <contour>
      <point x="327" y="451" type="qcurve"/>
      <point x="327" y="464"/>
      <point x="313" y="485"/>
      <point x="289" y="500"/>
      <point x="259" y="508"/>
      <point x="243" y="508" type="qcurve"/>
      <point x="222" y="508"/>
      <point x="182" y="497"/>
      <point x="151" y="478"/>
      <point x="131" y="451"/>
      <point x="131" y="435" type="qcurve"/>
      <point x="131" y="421"/>
      <point x="146" y="400"/>
      <point x="170" y="386"/>
      <point x="201" y="378"/>
      <point x="217" y="378" type="qcurve"/>
      <point x="236" y="378"/>
      <point x="276" y="389"/>
      <point x="307" y="408"/>
      <point x="327" y="435"/>
    </contour>
    <contour>
      <point x="183" y="608" type="qcurve"/>
      <point x="183" y="587"/>
      <point x="228" y="563"/>
      <point x="255" y="563" type="qcurve"/>
      <point x="270" y="563"/>
      <point x="304" y="571"/>
      <point x="332" y="586"/>
      <point x="350" y="607"/>
      <point x="350" y="621" type="qcurve"/>
      <point x="350" y="642"/>
      <point x="306" y="666"/>
      <point x="277" y="666" type="qcurve"/>
      <point x="259" y="666"/>
      <point x="225" y="658"/>
      <point x="199" y="643"/>
      <point x="183" y="621"/>
    </contour>
  </outline>
</glyph>
<glyph name="five.lnum" format="1">
  <advance width="543"/>
  <outline>
    <contour>
      <point x="191" y="-10" type="qcurve"/>
      <point x="118" y="-10"/>
      <point x="16" y="59"/>
      <point x="-2" y="119" type="qcurve"/>
      <point x="77" y="182" type="line"/>
      <point x="94" y="139"/>
      <point x="166" y="88"/>
      <point x="212" y="88" type="qcurve"/>
      <point x="245" y="88"/>
      <point x="304" y="113"/>
      <point x="349" y="158"/>
      <point x="376" y="219"/>
      <point x="376" y="254" type="qcurve"/>
      <point x="376" y="302"/>
      <point x="323" y="361"/>
      <point x="278" y="361" type="qcurve"/>
      <point x="243" y="361"/>
      <point x="175" y="327"/>
      <point x="149" y="296" type="qcurve"/>
      <point x="52" y="296" type="line"/>
      <point x="58" y="310"/>
      <point x="85" y="377"/>
      <point x="119" y="464"/>
      <point x="157" y="560"/>
      <point x="190" y="643"/>
      <point x="213" y="702"/>
      <point x="217" y="710" type="qcurve"/>
      <point x="548" y="710" type="line"/>
      <point x="526" y="609" type="line"/>
      <point x="276" y="609" type="line"/>
      <point x="202" y="416" type="line"/>
      <point x="222" y="435"/>
      <point x="278" y="456"/>
      <point x="313" y="456" type="qcurve"/>
      <point x="353" y="456"/>
      <point x="420" y="429"/>
      <point x="466" y="381"/>
      <point x="492" y="313"/>
      <point x="492" y="273" type="qcurve"/>
      <point x="492" y="212"/>
      <point x="443" y="108"/>
      <point x="360" y="33"/>
      <point x="251" y="-10"/>
    </contour>
  </outline>
</glyph>
<glyph name="four.numerator" format="1">
  <advance width="387"/>
  <outline>
    <contour>
      <point x="239" y="318" type="line"/>
      <point x="259" y="413" type="line"/>
      <point x="48" y="413" type="line"/>
      <point x="61" y="478" type="line"/>
      <point x="347" y="730" type="line"/>
      <point x="393" y="730" type="line"/>
      <point x="339" y="479" type="line"/>
      <point x="397" y="479" type="line"/>
      <point x="383" y="413" type="line"/>
      <point x="326" y="413" type="line"/>
      <point x="305" y="318" type="line"/>
    </contour>
    <contour>
      <point x="127" y="479" type="line"/>
      <point x="276" y="479" type="line"/>
      <point x="311" y="646" type="line"/>
    </contour>
  </outline>
</glyph>
<glyph name="j.alt" format="1">
  <advance width="239"/>
  <outline>
    <contour>
      <point x="110" y="517" type="line"/>
      <point x="220" y="517" type="line"/>
      <point x="65" y="-213" type="line"/>
      <point x="-45" y="-213" type="line"/>
    </contour>
    <contour>
      <point x="155" y="724" type="line"/>
      <point x="264" y="724" type="line"/>
      <point x="240" y="609" type="line"/>
      <point x="130" y="609" type="line"/>
    </contour>
  </outline>
</glyph>
<glyph name="nine.numerator" format="1">
  <advance width="406"/>
  <outline>
    <contour>
      <point x="88" y="565" type="qcurve"/>
      <point x="88" y="598"/>
      <point x="121" y="658"/>
      <point x="176" y="703"/>
      <point x="249" y="730"/>
      <point x="289" y="730" type="qcurve"/>
      <point x="352" y="730"/>
      <point x="424" y="654"/>
      <point x="424" y="588" type="qcurve"/>
      <point x="424" y="528"/>
      <point x="390" y="426"/>
      <point x="328" y="350"/>
      <point x="243" y="307"/>
      <point x="191" y="307" type="qcurve"/>
      <point x="147" y="307"/>
      <point x="81" y="343"/>
      <point x="66" y="375" type="qcurve"/>
      <point x="115" y="420" type="line"/>
      <point x="125" y="397"/>
      <point x="173" y="370"/>
      <point x="207" y="370" type="qcurve"/>
      <point x="257" y="370"/>
      <point x="332" y="437"/>
      <point x="346" y="498" type="qcurve"/>
      <point x="326" y="475"/>
      <point x="258" y="448"/>
      <point x="225" y="448" type="qcurve"/>
      <point x="162" y="448"/>
      <point x="88" y="514"/>
    </contour>
    <contour>
      <point x="275" y="668" type="qcurve"/>
      <point x="252" y="668"/>
      <point x="208" y="653"/>
      <point x="174" y="628"/>
      <point x="153" y="594"/>
      <point x="153" y="576" type="qcurve"/>
      <point x="153" y="547"/>
      <point x="203" y="507"/>
      <point x="241" y="507" type="qcurve"/>
      <point x="264" y="507"/>
      <point x="308" y="521"/>
      <point x="342" y="546"/>
      <point x="362" y="579"/>
      <point x="362" y="597" type="qcurve"/>
      <point x="362" y="626"/>
      <point x="313" y="668"/>
    </contour>
  </outline>
</glyph>
<glyph name="one.lnum" format="1">
  <advance width="448"/>
  <outline>
    <contour>
      <point x="22" y="99" type="line"/>
      <point x="152" y="99" type="line"/>
      <point x="260" y="605" type="line"/>
      <point x="250" y="593"/>
      <point x="208" y="564"/>
      <point x="159" y="537"/>
      <point x="108" y="519"/>
      <point x="89" y="519" type="qcurve"/>
      <point x="111" y="621" type="line"/>
      <point x="136" y="621"/>
      <point x="196" y="650"/>
      <point x="248" y="685"/>
      <point x="283" y="715"/>
      <point x="284" y="717" type="qcurve"/>
      <point x="396" y="717" type="line"/>
      <point x="265" y="99" type="line"/>
      <point x="385" y="99" type="line"/>
      <point x="364" y="0" type="line"/>
      <point x="1" y="0" type="line"/>
    </contour>
  </outline>
</glyph>
<glyph name="six.denominator" format="1">
  <advance width="405"/>
  <outline>
    <contour>
      <point x="142" y="-5" type="qcurve"/>
      <point x="79" y="-5"/>
      <point x="8" y="70"/>
      <point x="8" y="137" type="qcurve"/>
      <point x="8" y="196"/>
      <point x="42" y="299"/>
      <point x="103" y="374"/>
      <point x="189" y="417"/>
      <point x="241" y="417" type="qcurve"/>
      <point x="284" y="417"/>
      <point x="351" y="382"/>
      <point x="365" y="350" type="qcurve"/>
      <point x="317" y="304" type="line"/>
      <point x="307" y="327"/>
      <point x="257" y="353"/>
      <point x="225" y="353" type="qcurve"/>
      <point x="174" y="353"/>
      <point x="100" y="287"/>
      <point x="86" y="226" type="qcurve"/>
      <point x="106" y="249"/>
      <point x="174" y="276"/>
      <point x="206" y="276" type="qcurve"/>
      <point x="237" y="276"/>
      <point x="288" y="258"/>
      <point x="324" y="226"/>
      <point x="343" y="184"/>
      <point x="343" y="159" type="qcurve"/>
      <point x="343" y="126"/>
      <point x="310" y="66"/>
      <point x="254" y="21"/>
      <point x="182" y="-5"/>
    </contour>
    <contour>
      <point x="157" y="56" type="qcurve"/>
      <point x="180" y="56"/>
      <point x="223" y="71"/>
      <point x="257" y="96"/>
      <point x="278" y="130"/>
      <point x="278" y="148" type="qcurve"/>
      <point x="278" y="177"/>
      <point x="229" y="218"/>
      <point x="191" y="218" type="qcurve"/>
      <point x="167" y="218"/>
      <point x="123" y="203"/>
      <point x="89" y="178"/>
      <point x="68" y="145"/>
      <point x="68" y="127" type="qcurve"/>
      <point x="68" y="98"/>
      <point x="119" y="56"/>
    </contour>
  </outline>
</glyph>
